<svg width="162" height="147" viewBox="0 0 162 147" fill="none" xmlns="http://www.w3.org/2000/svg">
<path d="M2 92.7233H1.38843L1.53642 93.3167C2.91365 98.8387 5.34862 104.195 8.83484 109.384C16.2768 120.73 26.6884 127.816 40.0444 130.628V146V146.478H40.5222H67.2519H67.7297V146V130.623C78.7183 128.181 87.2289 123.972 93.2192 117.968C99.2865 111.886 102.321 104.408 102.321 95.5652C102.321 92.0467 101.736 88.7845 100.561 85.7836C99.5037 82.8172 98.2297 80.3102 96.7333 78.2718C95.3239 76.1031 93.175 74.1201 90.3147 72.3136C87.5837 70.4187 85.2107 68.9381 83.1982 67.8763C81.1667 66.8046 78.1992 65.6916 74.3142 64.5335C70.5543 63.2773 67.7671 62.4329 65.9632 62.0063C64.2666 61.4758 61.4274 60.7387 57.4565 59.796L57.4539 59.7954C50.6572 58.2232 45.5097 56.6049 41.9916 54.9465C38.6367 53.2119 37.0691 50.9852 37.0691 48.2826C37.0691 46.2898 38.1423 44.5862 40.4566 43.1742L40.4629 43.1703L40.4692 43.1662C42.7624 41.667 46.4218 40.88 51.5285 40.88C58.0597 40.88 62.8993 42.438 66.133 45.4734C67.557 46.9021 68.5621 48.4201 69.1629 50.0261L69.279 50.3365H69.6104H99.4848H100.057L99.9549 49.7734C99.1042 45.0836 97.245 40.509 94.3866 36.0509C88.4029 26.2669 79.5063 19.7162 67.7297 16.3979V1V0.522222H67.2519H40.5222H40.0444V1V15.577C29.9721 17.5165 21.6786 21.6812 15.1866 28.0837L15.1838 28.0865C8.71475 34.571 5.45306 41.8327 5.45306 49.8587C5.45306 59.0079 8.43082 66.0904 14.4322 71.0319L14.4354 71.0345C20.4759 75.9209 28.508 79.728 38.509 82.4716L38.512 82.4724C40.088 82.8937 42.3445 83.4723 45.2803 84.208L45.2841 84.2089C48.3229 84.9442 50.6246 85.521 52.1913 85.9398C53.7538 86.3575 55.6852 86.9329 57.9872 87.6671L57.9992 87.671L58.0115 87.6742C60.4108 88.3016 62.2077 88.9221 63.4215 89.5304L63.4362 89.5378L63.4514 89.5441C64.6779 90.0564 65.9087 90.7241 67.1437 91.5494L67.1509 91.5542L67.1583 91.5588C68.4718 92.3691 69.3394 93.2553 69.8118 94.2024L69.8251 94.229L69.8415 94.2537C70.4173 95.1195 70.705 96.0779 70.705 97.1413C70.705 99.6793 69.4534 101.801 66.8328 103.519C64.2227 105.23 60.194 106.12 54.6732 106.12C46.7966 106.12 40.7477 103.941 36.4579 99.6408C34.623 97.8015 33.2448 95.6033 32.324 93.0396L32.2104 92.7233H31.8744H2ZM110.867 64.8315V65.7354L111.614 65.2263L130.521 52.3387V128.663V129.141H130.999H160.873H161.351V128.663V18.337V17.8592H160.873H134.144H133.995L133.872 17.9439L111.073 33.7048L110.867 33.8473V34.0978V64.8315ZM67.4091 91.1522L67.409 91.1523L67.4091 91.1522Z" stroke="black" stroke-opacity="0.2" stroke-width="0.955555"/>
</svg>
