<svg width="203" height="143" viewBox="0 0 203 143" fill="none" xmlns="http://www.w3.org/2000/svg">
<path d="M0.5 58.7708V59.7148L1.28093 59.1845L25.0085 43.069V138.083V138.583H25.5085H62.7613H63.2613V138.083V1V0.5H62.7613H29.4298H29.2743L29.1462 0.588235L0.716364 20.1716L0.5 20.3206V20.5833V58.7708ZM83.3791 95.4792H82.7798L82.8871 96.0687C84.4681 104.754 87.698 112.526 92.5791 119.378L92.582 119.382C103.805 134.811 120.701 142.5 143.18 142.5C161.433 142.5 175.877 137.843 186.45 128.471C197.145 119.106 202.5 107.285 202.5 93.0417C202.5 79.592 197.741 68.298 188.229 59.193C178.714 50.0851 166.625 45.5417 152.003 45.5417C144.238 45.5417 137.561 46.8556 131.99 49.5045C129.413 50.663 127.202 51.9521 125.362 53.375H124.12L125.99 32.8333H190.236H190.736V32.3333V1V0.5H190.236H94.1628H93.6981L93.6641 0.963469L87.7821 81.2551L87.7428 81.7917H88.2807H126.514H126.721L126.867 81.6454C127.884 80.6296 129.03 79.6746 130.305 78.781C133.873 76.8787 138.158 75.9167 143.18 75.9167C149.9 75.9167 155.063 77.5298 158.735 80.6914C162.41 83.8556 164.247 87.9577 164.247 93.0417C164.247 98.1256 162.41 102.228 158.735 105.392C155.063 108.554 149.9 110.167 143.18 110.167C134.911 110.167 128.866 107.783 124.937 103.101C123.152 100.934 121.878 98.5157 121.113 95.8417L121.009 95.4792H120.632H83.3791Z" stroke="black" stroke-opacity="0.2"/>
</svg>
