<svg width="274" height="147" viewBox="0 0 274 147" fill="none" xmlns="http://www.w3.org/2000/svg">
<path d="M2 98.473H1.40227L1.50786 99.0613C3.09103 107.882 6.39091 115.789 11.4092 122.775C22.3884 138.613 39.5779 146.5 62.8699 146.5C81.0189 146.5 95.4805 141.905 106.198 132.662C116.909 123.426 122.276 111.858 122.276 97.9932C122.276 86.4991 118.299 76.8329 110.345 69.0283C102.416 61.2472 92.5711 57.3481 80.8455 57.3244V56.0194L82.6759 55.3551L82.7233 55.338L82.7663 55.3117L113.201 36.6968L113.44 36.5506V36.2703V4.91892V4.41892H112.94H9.85418H9.35418V4.91892V36.2703V36.7703H9.85418H62.3699V37.9523L31.1886 57.4001L30.9532 57.5469V57.8243V81.3378V81.8378H31.4532H62.8699C69.4666 81.8378 74.5732 83.4506 78.2522 86.6155L78.2522 86.6156L78.2586 86.6209C82.0866 89.8042 83.9689 93.5883 83.9689 97.9932C83.9689 102.533 82.0826 106.381 78.2586 109.562C74.5795 112.599 69.4703 114.149 62.8699 114.149C54.6033 114.149 48.3428 111.576 44.0078 106.487L43.9996 106.477L43.9909 106.468C41.955 104.309 40.5557 101.771 39.7911 98.8465L39.6935 98.473H39.3074H2ZM154.631 126.164L154.633 126.166C167.822 139.724 184.383 146.5 204.276 146.5C224.169 146.5 240.665 139.723 253.725 126.164C266.918 112.603 273.5 95.0328 273.5 73.5C273.5 51.9672 266.918 34.397 253.725 20.8356C240.665 7.27659 224.169 0.5 204.276 0.5C184.383 0.5 167.822 7.27648 154.633 20.8338L154.631 20.8356C141.568 34.3975 135.052 51.9677 135.052 73.5C135.052 95.0323 141.568 112.603 154.631 126.164ZM174.341 73.5C174.341 60.7602 177.078 51.1605 182.473 44.6223C187.868 38.0849 195.118 34.8108 204.276 34.8108C213.434 34.8108 220.683 38.0849 226.078 44.6223C231.474 51.1605 234.211 60.7602 234.211 73.5C234.211 86.2398 231.474 95.8395 226.078 102.378C220.683 108.915 213.434 112.189 204.276 112.189C195.118 112.189 187.868 108.915 182.473 102.378C177.078 95.8395 174.341 86.2398 174.341 73.5Z" stroke="black" stroke-opacity="0.2"/>
</svg>
