<svg width="52" height="52" viewBox="0 0 52 52" fill="none" xmlns="http://www.w3.org/2000/svg">
<g id="gridicons:line-graph">
<path id="Vector" d="M13.0003 38.9999C15.3837 38.9999 17.3337 37.0499 17.3337 34.6666C17.3337 33.5833 16.9003 32.4999 16.2503 31.8499L19.067 25.9999H19.5003C20.5837 25.9999 21.667 25.5666 22.317 24.9166L28.167 27.9499V28.1666C28.167 30.5499 30.117 32.4999 32.5003 32.4999C34.8837 32.4999 36.8337 30.5499 36.8337 28.1666C36.8337 27.0833 36.4003 26.2166 35.7503 25.3499L38.567 19.4999H39.0003C41.3837 19.4999 43.3337 17.5499 43.3337 15.1666C43.3337 12.7833 41.3837 10.8333 39.0003 10.8333C36.617 10.8333 34.667 12.7833 34.667 15.1666C34.667 16.2499 35.1003 17.3333 35.7503 17.9833L32.9337 23.8333H32.5003C31.417 23.8333 30.3337 24.2666 29.6837 24.9166L23.8337 22.0999V21.6666C23.8337 19.2833 21.8837 17.3333 19.5003 17.3333C17.117 17.3333 15.167 19.2833 15.167 21.6666C15.167 22.7499 15.6003 23.8333 16.2503 24.4833L13.4337 30.3333H13.0003C10.617 30.3333 8.66699 32.2833 8.66699 34.6666C8.66699 37.0499 10.617 38.9999 13.0003 38.9999Z" fill="#810000"/>
</g>
</svg>
