<svg width="72" height="72" viewBox="0 0 72 72" fill="none" xmlns="http://www.w3.org/2000/svg">
<path fill-rule="evenodd" clip-rule="evenodd" d="M36 72C45.5478 72 54.7045 68.2072 61.4558 61.4558C68.2072 54.7045 72 45.5478 72 36C72 26.4522 68.2072 17.2955 61.4558 10.5442C54.7045 3.79285 45.5478 0 36 0C26.4522 0 17.2955 3.79285 10.5442 10.5442C3.79285 17.2955 0 26.4522 0 36C0 45.5478 3.79285 54.7045 10.5442 61.4558C17.2955 68.2072 26.4522 72 36 72ZM40.5 18C40.5 16.8065 40.0259 15.6619 39.182 14.818C38.3381 13.9741 37.1935 13.5 36 13.5C34.8065 13.5 33.6619 13.9741 32.818 14.818C31.9741 15.6619 31.5 16.8065 31.5 18V36C31.5003 37.1934 31.9745 38.3378 32.8185 39.1815L45.5445 51.912C45.9626 52.3301 46.4589 52.6617 47.0052 52.888C47.5515 53.1143 48.137 53.2308 48.7282 53.2308C49.3195 53.2308 49.905 53.1143 50.4513 52.888C50.9976 52.6617 51.4939 52.3301 51.912 51.912C52.3301 51.4939 52.6617 50.9976 52.888 50.4513C53.1143 49.905 53.2308 49.3195 53.2308 48.7282C53.2308 48.137 53.1143 47.5515 52.888 47.0052C52.6617 46.4589 52.3301 45.9626 51.912 45.5445L40.5 34.137V18Z" fill="#810000"/>
</svg>
