<svg width="25" height="29" viewBox="0 0 25 29" fill="none" xmlns="http://www.w3.org/2000/svg">
<path d="M0.115838 28.9013C8.94435 18.6812 8.94435 10.3209 0.115839 0.09912C8.94435 10.3209 16.1693 14.5002 25 14.5002C16.1693 14.5002 8.94435 18.6812 0.115838 28.9013Z" fill="#810000"/>
<path d="M-1.25898e-06 28.8022C2.2385 26.2118 3.85597 23.8128 4.94251 21.4627C6.04728 19.0798 6.58411 16.8023 6.58411 14.5C6.58411 12.1977 6.04781 9.91967 4.94251 7.53731C3.85383 5.18936 2.23636 2.78819 -0.00214578 0.197812L0.227926 -1.08282e-06C9.03391 10.1917 16.2106 14.349 25 14.349L25 14.651C16.2106 14.651 9.03391 18.8078 0.227925 29L-1.25898e-06 28.8022ZM6.88712 14.5C6.88712 16.8474 6.34117 19.1663 5.21763 21.5901C4.59874 22.9242 3.812 24.2778 2.84076 25.6657C4.05118 24.3971 5.22567 23.2581 6.38622 22.2254C8.47027 20.3726 10.4664 18.9051 12.4818 17.7386C14.4972 16.5722 16.4997 15.7288 18.5891 15.1687C19.7584 14.8551 20.95 14.6321 22.1533 14.5016C20.95 14.3711 19.7584 14.1481 18.5891 13.8345C16.4976 13.2739 14.502 12.4332 12.4818 11.264C10.4615 10.0949 8.47027 8.63012 6.38622 6.77509C5.22567 5.74302 4.05118 4.60452 2.84076 3.33486C3.812 4.72547 4.59874 6.07629 5.21763 7.41045C6.34117 9.83366 6.88712 12.1526 6.88712 14.5Z" fill="#810000"/>
</svg>
