<svg width="84" height="60" viewBox="0 0 84 60" fill="none" xmlns="http://www.w3.org/2000/svg">
<path d="M32.625 41.25H38.25V33.75H43.875V41.25H49.5V18.75H43.875V28.125H38.25V18.75H32.625V41.25ZM53.25 41.25H66.375C67.4375 41.25 68.3288 40.89 69.0488 40.17C69.7688 39.45 70.1275 38.56 70.125 37.5V22.5C70.125 21.4375 69.765 20.5463 69.045 19.8263C68.325 19.1063 67.435 18.7475 66.375 18.75H53.25V41.25ZM58.875 35.625V24.375H64.5V35.625H58.875ZM13.875 41.25H19.5V33.75H27V28.125H19.5V24.375H28.875V18.75H13.875V41.25ZM8.25001 60C6.18751 60 4.42126 59.265 2.95126 57.795C1.48126 56.325 0.747506 54.56 0.750006 52.5V7.50001C0.750006 5.43751 1.48501 3.67126 2.95501 2.20126C4.42501 0.731256 6.19001 -0.00249363 8.25001 6.36673e-06H75.75C77.8125 6.36673e-06 79.5788 0.735006 81.0488 2.20501C82.5188 3.67501 83.2525 5.44001 83.25 7.50001V52.5C83.25 54.5625 82.515 56.3288 81.045 57.7988C79.575 59.2688 77.81 60.0025 75.75 60H8.25001Z" fill="#810000"/>
</svg>
