<svg width="52" height="52" viewBox="0 0 52 52" fill="none" xmlns="http://www.w3.org/2000/svg">
<path d="M10.833 23.2374L5.41636 20.1499C5.09136 19.9694 4.82919 19.7072 4.62986 19.3634C4.43052 19.0196 4.33158 18.6499 4.33302 18.2541V12.0791C4.33302 11.6819 4.43269 11.3114 4.63202 10.9676C4.83136 10.6238 5.0928 10.3624 5.41636 10.1833L10.833 7.09576C11.158 6.9152 11.5191 6.82493 11.9164 6.82493C12.3136 6.82493 12.6747 6.9152 12.9997 7.09576L18.4164 10.1833C18.7414 10.3638 19.0035 10.626 19.2029 10.9698C19.4022 11.3135 19.5011 11.6833 19.4997 12.0791V18.2541C19.4997 18.6513 19.4 19.0218 19.2007 19.3656C19.0014 19.7094 18.7399 19.9708 18.4164 20.1499L12.9997 23.2374C12.6747 23.418 12.3136 23.5083 11.9164 23.5083C11.5191 23.5083 11.158 23.418 10.833 23.2374ZM35.7497 28.1666V20.4749L41.1664 23.6708C41.8525 24.068 42.3855 24.5916 42.7654 25.2416C43.1452 25.8916 43.3345 26.6138 43.333 27.4083V37.5916C43.333 38.386 43.1431 39.1083 42.7632 39.7583C42.3833 40.4083 41.851 40.9319 41.1664 41.3291L32.4997 46.3666C31.8136 46.7638 31.0914 46.9624 30.333 46.9624C29.5747 46.9624 28.8525 46.7638 28.1664 46.3666L19.4997 41.3291C18.8136 40.9319 18.2806 40.4083 17.9007 39.7583C17.5208 39.1083 17.3316 38.386 17.333 37.5916V27.4083C17.333 26.6138 17.523 25.8916 17.9029 25.2416C18.2827 24.5916 18.815 24.068 19.4997 23.6708L24.9164 20.4749V28.1666C24.9164 29.6833 25.44 30.9652 26.4872 32.0124C27.5344 33.0596 28.8164 33.5833 30.333 33.5833C31.8497 33.5833 33.1316 33.0596 34.1789 32.0124C35.2261 30.9652 35.7497 29.6833 35.7497 28.1666ZM32.4997 17.3333V28.1666C32.4997 28.7805 32.2917 29.2954 31.8757 29.7114C31.4597 30.1274 30.9455 30.3347 30.333 30.3333C29.7191 30.3333 29.2042 30.1253 28.7882 29.7093C28.3722 29.2933 28.1649 28.779 28.1664 28.1666V6.49993C28.1664 5.88604 28.3744 5.37109 28.7904 4.95509C29.2064 4.53909 29.7206 4.33182 30.333 4.33326H43.6039C44.4705 4.33326 45.1205 4.71243 45.5539 5.47076C45.9872 6.22909 45.9511 6.96937 45.4455 7.69159L44.1455 9.64159C43.8927 10.0027 43.7664 10.3999 43.7664 10.8333C43.7664 11.2666 43.8927 11.6638 44.1455 12.0249L45.4455 13.9749C45.9511 14.6971 45.9872 15.4374 45.5539 16.1958C45.1205 16.9541 44.4705 17.3333 43.6039 17.3333H32.4997Z" fill="#810000"/>
</svg>
