<svg width="60" height="48" viewBox="0 0 60 48" fill="none" xmlns="http://www.w3.org/2000/svg">
<g id="fa6-solid:gears" clip-path="url(#clip0_557_894)">
<path id="Vector" d="M28.922 12.6844C29.5876 12.0938 29.8501 11.1656 29.5032 10.3406C29.2876 9.84375 29.0532 9.35625 28.7907 8.8875L28.5001 8.38125C28.2189 7.9125 27.9095 7.45313 27.5814 7.0125C27.047 6.3 26.1095 6.06563 25.2657 6.34688L22.622 7.21875C21.6189 6.39375 20.4657 5.71875 19.2282 5.25938L18.6563 2.54063C18.4782 1.66875 17.8032 0.975 16.922 0.871875C16.3032 0.7875 15.6751 0.75 15.0376 0.75H14.972C14.3345 0.75 13.7064 0.7875 13.0876 0.8625C12.2064 0.965625 11.5314 1.66875 11.3532 2.53125L10.7814 5.25938C9.53448 5.72813 8.39073 6.39375 7.3876 7.21875L4.73448 6.35625C3.89073 6.075 2.95322 6.30938 2.41885 7.02188C2.09072 7.4625 1.78135 7.92188 1.49073 8.39063L1.20947 8.8875C0.946975 9.35625 0.7126 9.84375 0.496975 10.35C0.1501 11.1656 0.4126 12.0938 1.07823 12.6938L3.15948 14.55C3.05635 15.1781 3.0001 15.8344 3.0001 16.5C3.0001 17.1656 3.05635 17.8219 3.15948 18.4594L1.07823 20.3156C0.4126 20.9063 0.1501 21.8344 0.496975 22.6594C0.7126 23.1563 0.946975 23.6438 1.20947 24.1219L1.49073 24.6094C1.77198 25.0875 2.08135 25.5375 2.41885 25.9781C2.95322 26.6906 3.89073 26.925 4.73448 26.6438L7.37823 25.7719C8.38135 26.5969 9.53448 27.2719 10.772 27.7313L11.3439 30.4594C11.522 31.3313 12.197 32.025 13.0782 32.1281C13.7063 32.2031 14.3438 32.2406 14.9907 32.2406C15.6376 32.2406 16.2751 32.2031 16.9032 32.1281C17.7845 32.025 18.4595 31.3219 18.6376 30.4594L19.2095 27.7313C20.4563 27.2625 21.6001 26.5969 22.6032 25.7719L25.247 26.6438C26.0907 26.925 27.0282 26.6906 27.5626 25.9781C27.8907 25.5375 28.2001 25.0875 28.4813 24.6094L28.772 24.1031C29.0345 23.6344 29.2689 23.1469 29.4845 22.65C29.8314 21.8344 29.5688 20.9063 28.9032 20.3063L26.822 18.45C26.9251 17.8125 26.9813 17.1562 26.9813 16.4906C26.9813 15.825 26.9251 15.1688 26.822 14.5313L28.9032 12.675L28.922 12.6844ZM10.5001 16.5C10.5001 15.3065 10.9742 14.1619 11.8181 13.318C12.662 12.4741 13.8066 12 15.0001 12C16.1936 12 17.3382 12.4741 18.1821 13.318C19.026 14.1619 19.5001 15.3065 19.5001 16.5C19.5001 17.6935 19.026 18.8381 18.1821 19.682C17.3382 20.5259 16.1936 21 15.0001 21C13.8066 21 12.662 20.5259 11.8181 19.682C10.9742 18.8381 10.5001 17.6935 10.5001 16.5ZM47.3157 46.9219C47.9064 47.5875 48.8345 47.85 49.6595 47.5031C50.1564 47.2875 50.6439 47.0531 51.1126 46.7906L51.6189 46.5C52.0876 46.2188 52.547 45.9094 52.9876 45.5813C53.7001 45.0469 53.9345 44.1094 53.6532 43.2656L52.7813 40.6219C53.6063 39.6188 54.2814 38.4656 54.7407 37.2281L57.4688 36.6563C58.3407 36.4781 59.0345 35.8031 59.1376 34.9219C59.2126 34.2938 59.2501 33.6563 59.2501 33.0094C59.2501 32.3625 59.2126 31.725 59.1376 31.0969C59.0345 30.2156 58.3314 29.5406 57.4688 29.3625L54.7407 28.7813C54.272 27.5344 53.6063 26.3906 52.7813 25.3875L53.6532 22.7438C53.9345 21.9 53.7001 20.9625 52.9876 20.4281C52.547 20.1 52.0876 19.7906 51.6189 19.5L51.122 19.2188C50.6532 18.9563 50.1657 18.7219 49.6595 18.5063C48.8439 18.1594 47.9157 18.4219 47.3157 19.0875L45.4595 21.1688C44.822 21.0656 44.1657 21.0094 43.5001 21.0094C42.8345 21.0094 42.1782 21.0656 41.5407 21.1688L39.6845 19.0875C39.0938 18.4219 38.1657 18.1594 37.3407 18.5063C36.8438 18.7219 36.3564 18.9563 35.8782 19.2188L35.3907 19.5C34.9126 19.7813 34.4626 20.0906 34.022 20.4281C33.3095 20.9625 33.0751 21.9 33.3563 22.7438L34.2282 25.3875C33.4032 26.3906 32.7282 27.5438 32.2689 28.7813L29.5407 29.3438C28.6689 29.5219 27.9751 30.1969 27.872 31.0781C27.797 31.7063 27.7595 32.3438 27.7595 32.9906C27.7595 33.6375 27.797 34.275 27.872 34.9031C27.9751 35.7844 28.6782 36.4594 29.5407 36.6375L32.2689 37.2094C32.7376 38.4563 33.4032 39.6 34.2282 40.6031L33.3563 43.2469C33.0751 44.0906 33.3095 45.0281 34.022 45.5625C34.4626 45.8906 34.9126 46.2 35.3907 46.4813L35.897 46.7719C36.3657 47.0344 36.8532 47.2688 37.3501 47.4844C38.1657 47.8313 39.0938 47.5688 39.6939 46.9031L41.5501 44.8219C42.1876 44.925 42.8439 44.9813 43.5095 44.9813C44.1751 44.9813 44.8314 44.925 45.4688 44.8219L47.3251 46.9031L47.3157 46.9219ZM43.5001 28.5C44.091 28.5 44.6762 28.6164 45.2222 28.8425C45.7681 29.0687 46.2642 29.4002 46.6821 29.818C47.0999 30.2359 47.4314 30.732 47.6576 31.2779C47.8837 31.8239 48.0001 32.4091 48.0001 33C48.0001 33.591 47.8837 34.1761 47.6576 34.7221C47.4314 35.268 47.0999 35.7641 46.6821 36.182C46.2642 36.5998 45.7681 36.9313 45.2222 37.1575C44.6762 37.3836 44.091 37.5 43.5001 37.5C42.9092 37.5 42.324 37.3836 41.778 37.1575C41.2321 36.9313 40.736 36.5998 40.3181 36.182C39.9003 35.7641 39.5688 35.268 39.3426 34.7221C39.1165 34.1761 39.0001 33.591 39.0001 33C39.0001 32.4091 39.1165 31.8239 39.3426 31.2779C39.5688 30.732 39.9003 30.2359 40.3181 29.818C40.736 29.4002 41.2321 29.0687 41.778 28.8425C42.324 28.6164 42.9092 28.5 43.5001 28.5Z" fill="#810000"/>
</g>
<defs>
<clipPath id="clip0_557_894">
<rect width="60" height="48" fill="white"/>
</clipPath>
</defs>
</svg>
