<svg width="52" height="52" viewBox="0 0 52 52" fill="none" xmlns="http://www.w3.org/2000/svg">
<g id="fluent:people-audience-20-filled">
<path id="Vector" d="M31.7592 13.564C31.7592 12.028 31.149 10.5549 30.0629 9.46875C28.9768 8.38263 27.5037 7.77246 25.9677 7.77246C24.4317 7.77246 22.9586 8.38263 21.8725 9.46875C20.7864 10.5549 20.1762 12.028 20.1762 13.564C20.1762 15.1 20.7864 16.5731 21.8725 17.6592C22.9586 18.7453 24.4317 19.3555 25.9677 19.3555C27.5037 19.3555 28.9768 18.7453 30.0629 17.6592C31.149 16.5731 31.7592 15.1 31.7592 13.564ZM6.5392 31.1998H14.3132V23.4362L14.334 22.9682C14.4016 22.196 14.6408 21.4732 15.01 20.8362H7.8418L7.5376 20.8544C6.90514 20.9289 6.32203 21.2329 5.89885 21.7088C5.47568 22.1847 5.24188 22.7993 5.2418 23.4362V29.8998C5.2418 30.2445 5.37876 30.5752 5.62256 30.819C5.86635 31.0628 6.19441 31.1998 6.5392 31.1998ZM46.7742 29.8998C46.7742 30.2445 46.6372 30.5752 46.3934 30.819C46.1496 31.0628 45.819 31.1998 45.4742 31.1998H37.6326V23.4362L37.617 23.0488C37.5602 22.2692 37.3273 21.5127 36.9358 20.8362H44.1742C44.8114 20.8363 45.4264 21.0705 45.9023 21.4942C46.3783 21.9179 46.6821 22.5016 46.756 23.1346L46.7742 23.4362V29.8998ZM35.0144 23.1346C34.9404 22.5012 34.6363 21.9171 34.1598 21.4933C33.6833 21.0696 33.0677 20.8357 32.43 20.8362H19.5132L19.209 20.8544C18.5765 20.9289 17.9934 21.2329 17.5703 21.7088C17.1471 22.1847 16.9133 22.7993 16.9132 23.4362V31.1998H35.03V23.4362L35.0144 23.1346ZM38.9352 9.40656C40.2543 9.40656 41.5194 9.93058 42.4522 10.8634C43.385 11.7961 43.909 13.0612 43.909 14.3804C43.909 15.6995 43.385 16.9646 42.4522 17.8974C41.5194 18.8301 40.2543 19.3542 38.9352 19.3542C37.6157 19.3542 36.3503 18.83 35.4173 17.897C34.4843 16.964 33.9601 15.6985 33.9601 14.3791C33.9601 13.0596 34.4843 11.7941 35.4173 10.8611C36.3503 9.92812 37.6157 9.40656 38.9352 9.40656ZM18.0156 14.3778C18.0156 13.0586 17.4916 11.7935 16.5588 10.8608C15.626 9.92798 14.3609 9.40396 13.0418 9.40396C11.7227 9.40396 10.4576 9.92798 9.52479 10.8608C8.59202 11.7935 8.068 13.0586 8.068 14.3778C8.068 15.6969 8.59202 16.962 9.52479 17.8948C10.4576 18.8275 11.7227 19.3516 13.0418 19.3516C14.3609 19.3516 15.626 18.8275 16.5588 17.8948C17.4916 16.962 18.0156 15.6969 18.0156 14.3778ZM6.5002 33.7998C6.15541 33.7998 5.82475 33.9367 5.58096 34.1805C5.33716 34.4243 5.2002 34.755 5.2002 35.0998V37.6998C5.2002 39.4237 5.88501 41.077 7.104 42.296C8.32299 43.5149 9.97629 44.1998 11.7002 44.1998H40.3002C42.0241 44.1998 43.6774 43.5149 44.8964 42.296C46.1154 41.077 46.8002 39.4237 46.8002 37.6998V35.0998C46.8002 34.755 46.6632 34.4243 46.4194 34.1805C46.1756 33.9367 45.845 33.7998 45.5002 33.7998H6.5002Z" fill="#810000"/>
</g>
</svg>
