<svg width="52" height="52" viewBox="0 0 52 52" fill="none" xmlns="http://www.w3.org/2000/svg">
<path d="M19.5003 10.8333C21.7989 10.8333 24.0033 11.7463 25.6286 13.3717C27.2539 14.997 28.167 17.2014 28.167 19.4999C28.167 21.7985 27.2539 24.0029 25.6286 25.6282C24.0033 27.2535 21.7989 28.1666 19.5003 28.1666C17.2018 28.1666 14.9974 27.2535 13.3721 25.6282C11.7468 24.0029 10.8337 21.7985 10.8337 19.4999C10.8337 17.2014 11.7468 14.997 13.3721 13.3717C14.9974 11.7463 17.2018 10.8333 19.5003 10.8333ZM19.5003 32.4999C25.2853 32.4999 36.8337 35.4032 36.8337 41.1666V45.4999H2.16699V41.1666C2.16699 35.4032 13.7153 32.4999 19.5003 32.4999ZM36.3137 11.6133C40.6903 16.3799 40.6903 22.9883 36.3137 27.3649L32.6737 23.7032C34.4937 21.1466 34.4937 17.8316 32.6737 15.2749L36.3137 11.6133ZM43.4853 4.33325C52.0003 13.1083 51.9353 26.2383 43.4853 34.6666L39.9537 31.1349C45.9553 24.2449 45.9553 14.4083 39.9537 7.86492L43.4853 4.33325Z" fill="#810000"/>
</svg>
