<svg width="88" height="44" viewBox="0 0 88 44" fill="none" xmlns="http://www.w3.org/2000/svg">
<path d="M87.5944 21.9996C87.5949 26.1719 86.358 30.2507 84.0402 33.72C81.7225 37.1893 78.4279 39.8933 74.5732 41.4901C70.7185 43.0868 66.4768 43.5046 62.3847 42.6904C58.2926 41.8763 54.5338 39.8669 51.5838 36.9164L51.4115 36.7301L30.367 12.968C28.5878 11.2214 26.3324 10.0392 23.8838 9.56973C21.4352 9.10029 18.9024 9.36452 16.6035 10.3293C14.3045 11.294 12.3416 12.9163 10.9613 14.9925C9.58091 17.0687 8.84452 19.5064 8.84452 21.9996C8.84452 24.4928 9.58091 26.9305 10.9613 29.0067C12.3416 31.0829 14.3045 32.7052 16.6035 33.67C18.9024 34.6347 21.4352 34.8989 23.8838 34.4295C26.3324 33.96 28.5878 32.7778 30.367 31.0312L31.4498 29.8078C31.8171 29.3923 32.2626 29.0532 32.7609 28.8099C33.2592 28.5665 33.8006 28.4237 34.3541 28.3896C34.9076 28.3555 35.4624 28.4307 35.9868 28.611C36.5113 28.7913 36.9951 29.0732 37.4106 29.4404C37.8261 29.8077 38.1652 30.2532 38.4085 30.7515C38.6518 31.2498 38.7947 31.7912 38.8288 32.3447C38.8629 32.8982 38.7876 33.453 38.6073 33.9775C38.427 34.5019 38.1452 34.9857 37.7779 35.4012L36.6002 36.7301L36.4279 36.9164C33.4778 39.8661 29.7192 41.8747 25.6275 42.6883C21.5359 43.5019 17.2948 43.084 13.4406 41.4873C9.58645 39.8907 6.29226 37.1871 3.97461 33.7183C1.65696 30.2495 0.419922 26.1714 0.419922 21.9996C0.419922 17.8278 1.65696 13.7497 3.97461 10.2809C6.29226 6.81215 9.58645 4.10851 13.4406 2.51186C17.2948 0.915224 21.5359 0.497288 25.6275 1.31091C29.7192 2.12452 33.4778 4.13315 36.4279 7.08281L36.6002 7.26914L57.6447 31.0312C59.4239 32.7778 61.6793 33.96 64.128 34.4295C66.5766 34.8989 69.1093 34.6347 71.4083 33.67C73.7073 32.7052 75.6701 31.0829 77.0505 29.0067C78.4308 26.9305 79.1672 24.4928 79.1672 21.9996C79.1672 19.5064 78.4308 17.0687 77.0505 14.9925C75.6701 12.9163 73.7073 11.294 71.4083 10.3293C69.1093 9.36452 66.5766 9.10029 64.128 9.56973C61.6793 10.0392 59.4239 11.2214 57.6447 12.968L56.5619 14.1914C56.1947 14.6069 55.7492 14.946 55.2508 15.1894C54.7525 15.4327 54.2112 15.5755 53.6576 15.6096C53.1041 15.6437 52.5493 15.5685 52.0249 15.3882C51.5005 15.2079 51.0167 14.9261 50.6012 14.5588C50.1857 14.1915 49.8466 13.746 49.6032 13.2477C49.3599 12.7494 49.2171 12.208 49.183 11.6545C49.1489 11.101 49.2241 10.5462 49.4044 10.0218C49.5847 9.49733 49.8665 9.01355 50.2338 8.59804L51.4115 7.26914L51.5838 7.08281C54.5338 4.13229 58.2926 2.12289 62.3847 1.30878C66.4768 0.494663 70.7185 0.912393 74.5732 2.50914C78.4279 4.10588 81.7225 6.80991 84.0402 10.2792C86.358 13.7485 87.5949 17.8273 87.5944 21.9996Z" fill="#810000"/>
</svg>
