<svg width="135" height="67" viewBox="0 0 135 67" fill="none" xmlns="http://www.w3.org/2000/svg">
<rect x="2" y="42" width="131" height="23" rx="4" fill="#EEEBDD"/>
<path d="M25.34 54.54V51H26.3V54.48C26.3 55.056 26.444 55.492 26.732 55.788C27.02 56.076 27.416 56.22 27.92 56.22C28.472 56.22 28.92 56.04 29.264 55.68C29.608 55.312 29.78 54.832 29.78 54.24V51H30.74V57H29.78V56.1H29.768C29.64 56.3 29.48 56.472 29.288 56.616C28.856 56.952 28.34 57.12 27.74 57.12C27.012 57.12 26.428 56.892 25.988 56.436C25.556 55.972 25.34 55.34 25.34 54.54ZM32.4181 57V51H33.3781V51.9H33.3901C33.5101 51.708 33.6661 51.54 33.8581 51.396C34.2981 51.052 34.8181 50.88 35.4181 50.88C36.1461 50.88 36.7261 51.112 37.1581 51.576C37.5981 52.032 37.8181 52.66 37.8181 53.46V57H36.8581V53.52C36.8581 52.944 36.7141 52.512 36.4261 52.224C36.1381 51.928 35.7421 51.78 35.2381 51.78C34.6861 51.78 34.2381 51.964 33.8941 52.332C33.5501 52.692 33.3781 53.168 33.3781 53.76V57H32.4181ZM39.4497 49.668C39.3217 49.54 39.2577 49.384 39.2577 49.2C39.2577 49.016 39.3217 48.86 39.4497 48.732C39.5777 48.604 39.7337 48.54 39.9177 48.54C40.1017 48.54 40.2577 48.604 40.3857 48.732C40.5137 48.86 40.5777 49.016 40.5777 49.2C40.5777 49.384 40.5137 49.54 40.3857 49.668C40.2577 49.796 40.1017 49.86 39.9177 49.86C39.7337 49.86 39.5777 49.796 39.4497 49.668ZM39.4377 57V51H40.3977V57H39.4377ZM41.5344 51.9V51H42.3144V49.68H43.2744V51H45.1944V51.9H43.2744V56.1H45.2544V57H42.3144V51.9H41.5344ZM46.3372 54.18V53.22H50.6572V54.18H46.3372ZM52.7388 56.232C52.1548 55.64 51.8628 54.896 51.8628 54C51.8628 53.104 52.1548 52.36 52.7388 51.768C53.3228 51.176 54.0508 50.88 54.9228 50.88C55.7948 50.88 56.5228 51.172 57.1068 51.756C57.6908 52.34 57.9828 53.068 57.9828 53.94V54.3H52.8228C52.8868 54.86 53.1148 55.32 53.5068 55.68C53.8988 56.04 54.3708 56.22 54.9228 56.22C55.5148 56.22 56.0228 56.04 56.4468 55.68C56.6388 55.52 56.7908 55.34 56.9028 55.14H57.8628C57.7188 55.516 57.5148 55.848 57.2508 56.136C56.6268 56.792 55.8508 57.12 54.9228 57.12C54.0508 57.12 53.3228 56.824 52.7388 56.232ZM52.8468 53.46H56.9628C56.8908 52.988 56.6708 52.592 56.3028 52.272C55.9348 51.944 55.4748 51.78 54.9228 51.78C54.3708 51.78 53.9068 51.944 53.5308 52.272C53.1548 52.592 52.9268 52.988 52.8468 53.46ZM59.3009 57V51H60.2609V53.4H61.4609L63.3809 51H64.5209L62.3009 53.82L64.7009 57H63.5009L61.4609 54.3H60.2609V57H59.3009ZM65.8993 56.232C65.3073 55.64 65.0113 54.896 65.0113 54C65.0113 53.104 65.3073 52.36 65.8993 51.768C66.4913 51.176 67.2353 50.88 68.1313 50.88C69.0273 50.88 69.7713 51.176 70.3633 51.768C70.9553 52.36 71.2513 53.104 71.2513 54C71.2513 54.896 70.9553 55.64 70.3633 56.232C69.7713 56.824 69.0273 57.12 68.1313 57.12C67.2353 57.12 66.4913 56.824 65.8993 56.232ZM66.5833 52.404C66.1753 52.82 65.9713 53.352 65.9713 54C65.9713 54.648 66.1753 55.18 66.5833 55.596C66.9913 56.012 67.5073 56.22 68.1313 56.22C68.7553 56.22 69.2713 56.012 69.6793 55.596C70.0873 55.18 70.2913 54.648 70.2913 54C70.2913 53.352 70.0873 52.82 69.6793 52.404C69.2713 51.988 68.7553 51.78 68.1313 51.78C67.5073 51.78 66.9913 51.988 66.5833 52.404ZM72.5666 57V51H73.5266V53.46H76.8866V51H77.8466V57H76.8866V54.36H73.5266V57H72.5666ZM80.0555 56.232C79.4635 55.64 79.1675 54.896 79.1675 54C79.1675 53.104 79.4635 52.36 80.0555 51.768C80.6475 51.176 81.3915 50.88 82.2875 50.88C83.1835 50.88 83.9275 51.176 84.5195 51.768C85.1115 52.36 85.4075 53.104 85.4075 54C85.4075 54.896 85.1115 55.64 84.5195 56.232C83.9275 56.824 83.1835 57.12 82.2875 57.12C81.3915 57.12 80.6475 56.824 80.0555 56.232ZM80.7395 52.404C80.3315 52.82 80.1275 53.352 80.1275 54C80.1275 54.648 80.3315 55.18 80.7395 55.596C81.1475 56.012 81.6635 56.22 82.2875 56.22C82.9115 56.22 83.4275 56.012 83.8355 55.596C84.2435 55.18 84.4475 54.648 84.4475 54C84.4475 53.352 84.2435 52.82 83.8355 52.404C83.4275 51.988 82.9115 51.78 82.2875 51.78C81.6635 51.78 81.1475 51.988 80.7395 52.404ZM86.7228 57V51H88.1628L89.9628 54.72H90.2628L92.0628 51H93.5028V57H92.5428V52.2L92.5548 52.08H92.5308L90.7428 55.8H89.4828L87.6948 52.08H87.6708L87.6828 52.2V57H86.7228ZM95.1958 49.668C95.0678 49.54 95.0038 49.384 95.0038 49.2C95.0038 49.016 95.0678 48.86 95.1958 48.732C95.3238 48.604 95.4798 48.54 95.6638 48.54C95.8478 48.54 96.0038 48.604 96.1318 48.732C96.2598 48.86 96.3238 49.016 96.3238 49.2C96.3238 49.384 96.2598 49.54 96.1318 49.668C96.0038 49.796 95.8478 49.86 95.6638 49.86C95.4798 49.86 95.3238 49.796 95.1958 49.668ZM95.1838 57V51H96.1438V57H95.1838ZM97.8205 57V51H98.7805V53.4H99.9805L101.9 51H103.04L100.82 53.82L103.22 57H102.02L99.9805 54.3H98.7805V57H97.8205ZM104.371 56.232C103.811 55.632 103.531 54.888 103.531 54C103.531 53.112 103.811 52.372 104.371 51.78C104.931 51.18 105.611 50.88 106.411 50.88C106.915 50.88 107.339 50.976 107.683 51.168C108.035 51.36 108.291 51.568 108.451 51.792L108.559 51.972H108.571V51H109.531V57H108.571V56.04H108.559L108.451 56.208C108.307 56.424 108.059 56.632 107.707 56.832C107.355 57.024 106.923 57.12 106.411 57.12C105.611 57.12 104.931 56.824 104.371 56.232ZM105.067 52.404C104.683 52.82 104.491 53.352 104.491 54C104.491 54.648 104.683 55.18 105.067 55.596C105.459 56.012 105.947 56.22 106.531 56.22C107.115 56.22 107.599 56.012 107.983 55.596C108.375 55.18 108.571 54.648 108.571 54C108.571 53.352 108.375 52.82 107.983 52.404C107.599 51.988 107.115 51.78 106.531 51.78C105.947 51.78 105.459 51.988 105.067 52.404Z" fill="black"/>
<rect x="2" y="42" width="131" height="23" rx="4" stroke="#1B1717" stroke-width="2"/>
<rect x="0.5" y="40.5" width="134" height="26" rx="5.5" stroke="#EEEBDD"/>
<rect x="6.31116" y="2.3169" width="128" height="23" rx="4" transform="rotate(10 6.31116 2.3169)" fill="#EEEBDD"/>
<path d="M14.988 18.2984C14.5407 17.6103 14.3942 16.8289 14.5484 15.9544C14.7026 15.0799 15.1068 14.3998 15.7611 13.914C16.4168 13.4204 17.1385 13.243 17.9264 13.3819C18.4227 13.4695 18.8236 13.6376 19.1291 13.8864C19.4424 14.1366 19.6584 14.3859 19.777 14.6343L19.8521 14.8303L19.864 14.8324L20.0327 13.8752L20.9782 14.0419L19.9363 19.9507L18.9909 19.784L19.1576 18.8386L19.1457 18.8365L19.0102 18.9832C18.8309 19.1709 18.5505 19.3327 18.1692 19.4686C17.7892 19.5965 17.3471 19.616 16.8428 19.5271C16.055 19.3882 15.4367 18.9786 14.988 18.2984ZM16.3382 14.6494C15.8878 14.9924 15.6063 15.483 15.4938 16.1211C15.3813 16.7593 15.478 17.3165 15.7839 17.7929C16.0977 18.2707 16.5422 18.5602 17.1173 18.6616C17.6924 18.7631 18.2052 18.6423 18.6556 18.2993C19.1139 17.9577 19.3993 17.4678 19.5118 16.8296C19.6243 16.1915 19.5237 15.6335 19.2099 15.1558C18.9039 14.6794 18.4634 14.3905 17.8883 14.2891C17.3132 14.1877 16.7965 14.3078 16.3382 14.6494ZM21.5949 20.2432L22.6368 14.3344L23.5822 14.5011L23.155 16.9237L26.464 17.5071L26.8912 15.0845L27.8366 15.2512L26.7947 21.1601L25.8493 20.9934L26.3077 18.3935L22.9987 17.81L22.5403 20.4099L21.5949 20.2432ZM29.0562 20.779C28.6089 20.0908 28.4623 19.3095 28.6165 18.435C28.7707 17.5605 29.1749 16.8804 29.8292 16.3946C30.4849 15.901 31.2067 15.7236 31.9945 15.8625C32.4909 15.95 32.8918 16.1182 33.1972 16.367C33.5105 16.6172 33.7265 16.8665 33.8452 17.1149L33.9203 17.3109L33.9321 17.313L34.1009 16.3558L35.0463 16.5225L34.0044 22.4313L33.059 22.2646L33.2257 21.3192L33.2139 21.3171L33.0783 21.4638C32.899 21.6515 32.6187 21.8133 32.2373 21.9491C31.8573 22.0771 31.4152 22.0966 30.911 22.0077C30.1231 21.8688 29.5048 21.4592 29.0562 20.779ZM30.4063 17.13C29.9559 17.473 29.6744 17.9636 29.5619 18.6017C29.4494 19.2399 29.5461 19.7971 29.852 20.2735C30.1658 20.7512 30.6103 21.0408 31.1854 21.1422C31.7606 21.2436 32.2733 21.1229 32.7237 20.7799C33.182 20.4382 33.4674 19.9484 33.5799 19.3102C33.6925 18.6721 33.5918 18.1141 33.278 17.6363C32.9721 17.16 32.5315 16.8711 31.9564 16.7697C31.3813 16.6683 30.8646 16.7884 30.4063 17.13ZM34.954 22.5988L37.6503 16.9816L40.1321 17.4192L40.7446 23.6198L39.7401 23.4427L39.2667 18.1805L38.2031 17.993L35.9585 22.7759L34.954 22.5988ZM42.9723 16.5675C42.8685 16.4192 42.8325 16.2545 42.8645 16.0733C42.8964 15.8921 42.9865 15.7496 43.1348 15.6457C43.2831 15.5419 43.4479 15.506 43.6291 15.5379C43.8103 15.5699 43.9528 15.66 44.0566 15.8083C44.1604 15.9565 44.1964 16.1213 44.1644 16.3025C44.1325 16.4837 44.0424 16.6262 43.8941 16.73C43.7458 16.8339 43.581 16.8698 43.3998 16.8379C43.2186 16.8059 43.0761 16.7158 42.9723 16.5675ZM41.6873 23.786L42.7292 17.8772L43.6746 18.0439L42.6327 23.9527L41.6873 23.786ZM44.016 22.308L44.9615 22.4747C44.974 22.68 45.0333 22.8732 45.1395 23.0544C45.3685 23.4603 45.7981 23.7189 46.4284 23.83C46.9011 23.9133 47.2795 23.8866 47.5636 23.7499C47.8569 23.6066 48.0265 23.405 48.0723 23.145C48.1182 22.8851 48.0375 22.6515 47.8303 22.4444C47.6231 22.2372 47.2832 22.092 46.8105 22.0087L46.1014 21.8836L46.2577 20.9973L46.9668 21.1223C47.8334 21.2751 48.3153 21.0758 48.4126 20.5243C48.4529 20.2958 48.3687 20.082 48.1601 19.8827C47.9608 19.677 47.6406 19.5352 47.1994 19.4574C46.6952 19.3685 46.267 19.4474 45.9148 19.694C45.7851 19.7848 45.6688 19.9146 45.5659 20.0833L44.6205 19.9166C44.7484 19.6061 44.9383 19.3349 45.1904 19.1032C45.7594 18.5943 46.4812 18.4169 47.3557 18.5711C48.0963 18.7017 48.6357 18.9593 48.9741 19.3439C49.3203 19.7299 49.4518 20.1592 49.3684 20.6319C49.2559 21.2701 48.8532 21.6418 48.1604 21.7471L48.1347 21.7548L48.1326 21.7666C48.1562 21.7707 48.2014 21.7909 48.2682 21.827C48.3349 21.8632 48.4172 21.9264 48.515 22.0168C48.622 22.1006 48.7177 22.2028 48.8021 22.3233C48.8878 22.4359 48.9509 22.5851 48.9912 22.7709C49.0395 22.9581 49.0448 23.1581 49.0073 23.3708C48.9184 23.8751 48.6314 24.259 48.1462 24.5228C47.661 24.7866 47.0363 24.8511 46.2721 24.7163C45.2873 24.5427 44.6155 24.0911 44.2567 23.3618C44.1033 23.0341 44.0231 22.6829 44.016 22.308ZM53.3319 25.8393L54.3738 19.9304L55.3192 20.0971L54.9024 22.4607L56.0842 22.6691L58.3918 20.6389L59.5145 20.8369L56.8385 23.2285L58.6498 26.777L57.4681 26.5686L55.9279 23.5554L54.7461 23.347L54.2773 26.006L53.3319 25.8393ZM59.9633 26.2287C59.4831 25.5429 59.3208 24.7588 59.4764 23.8764C59.632 22.9941 60.0527 22.3128 60.7385 21.8326C61.4243 21.3523 62.2084 21.19 63.0908 21.3456C63.9731 21.5012 64.6544 21.9219 65.1346 22.6077C65.6149 23.2935 65.7772 24.0776 65.6216 24.96C65.466 25.8424 65.0453 26.5237 64.3595 27.0039C63.6737 27.4841 62.8896 27.6464 62.0072 27.4908C61.1248 27.3352 60.4435 26.9145 59.9633 26.2287ZM61.3016 22.5777C60.8276 22.9165 60.5343 23.405 60.4218 24.0431C60.3093 24.6813 60.4178 25.2406 60.7473 25.7212C61.0769 26.2017 61.549 26.4961 62.1635 26.6045C62.778 26.7129 63.3223 26.5976 63.7963 26.2588C64.2704 25.92 64.5636 25.4315 64.6762 24.7933C64.7887 24.1552 64.6802 23.5958 64.3506 23.1153C64.021 22.6348 63.549 22.3403 62.9345 22.232C62.32 22.1236 61.7757 22.2388 61.3016 22.5777ZM66.396 28.1428L67.4378 22.234L68.3833 22.4007L67.9561 24.8233L71.265 25.4068L71.6922 22.9842L72.6376 23.1509L71.5957 29.0597L70.6503 28.893L71.1088 26.2931L67.7998 25.7096L67.3414 28.3095L66.396 28.1428ZM73.2511 29.3516L74.293 23.4427L75.2384 23.6094L74.8217 25.973L76.0035 26.1814L78.311 24.1512L79.4337 24.3492L76.7578 26.7408L78.5691 30.2893L77.3873 30.0809L75.8472 27.0677L74.6654 26.8593L74.1966 29.5183L73.2511 29.3516ZM79.9111 24.4334L80.9156 24.6105L81.3299 29.8622L82.2162 30.0185L84.6381 25.2669L85.6426 25.444L81.7231 33.1606L80.7186 32.9835L81.8236 30.8631L80.4646 30.6235L79.9111 24.4334ZM85.0307 33.7438L86.4685 25.5896L87.4139 25.7563L87.2472 26.7017L87.259 26.7038L87.4085 26.5474C87.5785 26.3662 87.8535 26.2116 88.2335 26.0836C88.6149 25.9478 89.0577 25.9243 89.5619 26.0132C90.3498 26.1521 90.9673 26.5657 91.4146 27.2538C91.8633 27.934 92.0106 28.7114 91.8564 29.5859C91.7022 30.4604 91.2972 31.1445 90.6416 31.6381C89.9873 32.1239 89.2662 32.2973 88.4784 32.1584C87.9741 32.0695 87.5614 31.8993 87.2402 31.6477C86.9283 31.3896 86.7281 31.1431 86.6395 30.9081L86.5505 30.7218L86.5387 30.7197L85.9761 33.9105L85.0307 33.7438ZM87.7373 27.239C87.2869 27.582 87.0055 28.0726 86.893 28.7107C86.7804 29.3489 86.8771 29.9061 87.1831 30.3825C87.4969 30.8603 87.9413 31.1498 88.5165 31.2512C89.0916 31.3527 89.6044 31.2319 90.0548 30.8889C90.513 30.5473 90.7984 30.0574 90.911 29.4192C91.0235 28.7811 90.9229 28.2231 90.609 27.7454C90.3031 27.269 89.8626 26.9801 89.2875 26.8787C88.7123 26.7773 88.1956 26.8974 87.7373 27.239ZM93.2811 32.1036C92.8087 31.4191 92.6504 30.6357 92.806 29.7534C92.9615 28.871 93.3783 28.189 94.0562 27.7074C94.7342 27.2258 95.5025 27.0607 96.3613 27.2121C97.22 27.3635 97.8862 27.7775 98.36 28.4541C98.8337 29.1306 98.9948 29.8982 98.8434 30.757L98.7809 31.1115L93.6993 30.2155C93.6651 30.7781 93.8097 31.2707 94.1333 31.6933C94.4568 32.1159 94.8904 32.3751 95.434 32.471C96.017 32.5738 96.5485 32.4847 97.0286 32.2038C97.2455 32.0796 97.4264 31.9287 97.5714 31.7512L98.5168 31.9179C98.3097 32.2632 98.0512 32.5547 97.7412 32.7925C97.0128 33.3302 96.1916 33.5185 95.2777 33.3573C94.4189 33.2059 93.7534 32.788 93.2811 32.1036ZM93.8688 29.3924L97.9222 30.1072C97.9333 29.6298 97.7854 29.2016 97.4786 28.8226C97.1731 28.4357 96.7486 28.1943 96.205 28.0984C95.6614 28.0026 95.1759 28.0835 94.7487 28.3413C94.3228 28.5911 94.0295 28.9415 93.8688 29.3924ZM99.6101 33.9994L100.652 28.0905L101.597 28.2572L101.17 30.6799L104.479 31.2633L104.906 28.8407L105.852 29.0074L104.81 34.9163L103.865 34.7496L104.323 32.1497L101.014 31.5662L100.556 34.1661L99.6101 33.9994ZM106.583 30.0502L106.739 29.1639L111.821 30.0599L111.664 30.9462L109.596 30.5815L108.711 35.6041L107.765 35.4374L108.651 30.4148L106.583 30.0502ZM112.955 28.9074C112.851 28.7591 112.815 28.5944 112.847 28.4131C112.879 28.2319 112.969 28.0894 113.118 27.9856C113.266 27.8818 113.431 27.8458 113.612 27.8778C113.793 27.9097 113.936 27.9999 114.04 28.1481C114.143 28.2964 114.179 28.4612 114.147 28.6424C114.115 28.8236 114.025 28.9661 113.877 29.0699C113.729 29.1737 113.564 29.2097 113.383 29.1777C113.202 29.1458 113.059 29.0557 112.955 28.9074ZM111.67 36.1259L112.712 30.2171L113.657 30.3838L112.616 36.2926L111.67 36.1259ZM114.267 36.5838L115.309 30.6749L118.204 31.1854C118.756 31.2827 119.165 31.497 119.431 31.8283C119.698 32.1596 119.793 32.5419 119.716 32.9752C119.682 33.1722 119.622 33.3485 119.538 33.5043C119.455 33.6521 119.366 33.7663 119.27 33.847C119.176 33.9198 119.076 33.9793 118.971 34.0257C118.874 34.0656 118.792 34.0917 118.725 34.1043C118.667 34.1103 118.626 34.1112 118.603 34.1071L118.601 34.1189C118.624 34.1231 118.67 34.1432 118.736 34.1793C118.804 34.2076 118.887 34.2669 118.985 34.3573C119.092 34.4411 119.189 34.5394 119.274 34.652C119.36 34.7646 119.422 34.9177 119.461 35.1114C119.508 35.3065 119.512 35.5144 119.473 35.735C119.383 36.2471 119.133 36.6294 118.723 36.8821C118.321 37.1361 117.804 37.2075 117.174 37.0964L114.267 36.5838ZM115.827 33.2642L117.718 33.5977C118.309 33.7018 118.649 33.4979 118.74 32.9858C118.83 32.4737 118.58 32.1655 117.989 32.0614L116.098 31.7279L115.827 33.2642ZM115.369 35.8641L117.318 36.208C117.665 36.2691 117.943 36.2368 118.152 36.1112C118.361 35.9856 118.49 35.7849 118.538 35.5092C118.587 35.2334 118.535 35.0008 118.381 34.8113C118.228 34.6218 117.978 34.4964 117.631 34.4353L115.681 34.0915L115.369 35.8641Z" fill="black"/>
<rect x="6.31116" y="2.3169" width="128" height="23" rx="4" transform="rotate(10 6.31116 2.3169)" stroke="#1B1717" stroke-width="2"/>
<rect x="5.09406" y="0.579228" width="131" height="26" rx="5.5" transform="rotate(10 5.09406 0.579228)" stroke="#EEEBDD"/>
</svg>
