<svg width="37" height="32" viewBox="0 0 37 32" fill="none" xmlns="http://www.w3.org/2000/svg">
<path d="M10.1998 4.00024C10.9116 4.07933 12.4615 7.46985 12.9162 8.05441C13.4672 8.76293 14.1957 10.1931 14.9711 10.6492C15.3158 10.8519 16.7355 12.9377 16.8345 13.3834C17.0528 14.3656 18.1228 14.9319 18.4019 15.9085C18.7473 17.1176 19.0215 17.9751 20.082 18.8236C21.0013 19.559 22.749 22.1964 23.6114 23.0588C24.1709 23.6183 26.5192 27.6891 27.1408 27.9999" stroke="#810000" stroke-width="7" stroke-linecap="round"/>
<path d="M6.67072 26.5882C7.38441 25.7853 9.28662 24.6988 9.49421 23.7647C10.906 22.3529 12.4427 20.1662 13.1604 19.8791C14.0191 19.5356 14.1935 18.6592 15.1412 18.1177C16.1862 17.5205 18.0008 16.1315 18.6635 15.1074C19.7629 13.4084 21.1862 13.5389 22.1999 11.7648C22.6625 10.9554 24.3839 10.0188 24.7587 9.08188C26.4351 6.82373 27.141 5.41199 28.5528 4.00024" stroke="#810000" stroke-width="7" stroke-linecap="round"/>
<path d="M4 14.4809C9.23856 15.1358 14.7891 15.1812 20.1088 16.1876C22.2943 16.6011 24.2151 16.6752 26.4351 16.6752C28.7514 16.6752 31.2137 16.6752 33.466 16.6752" stroke="#810000" stroke-width="7" stroke-linecap="round"/>
</svg>
