<svg width="225" height="38" viewBox="0 0 225 38" fill="none" xmlns="http://www.w3.org/2000/svg">
<path d="M0 1H218M216.822 1.01923V2" stroke="#810000" stroke-width="2" stroke-dasharray="8 8"/>
<path d="M216.293 37.7071C216.683 38.0976 217.317 38.0976 217.707 37.7071L224.071 31.3431C224.462 30.9526 224.462 30.3195 224.071 29.9289C223.681 29.5384 223.047 29.5384 222.657 29.9289L217 35.5858L211.343 29.9289C210.953 29.5384 210.319 29.5384 209.929 29.9289C209.538 30.3195 209.538 30.9526 209.929 31.3431L216.293 37.7071ZM216 4.625C216 5.17728 216.448 5.625 217 5.625C217.552 5.625 218 5.17728 218 4.625L216 4.625ZM218 13.875C218 13.3227 217.552 12.875 217 12.875C216.448 12.875 216 13.3227 216 13.875L218 13.875ZM216 23.125C216 23.6773 216.448 24.125 217 24.125C217.552 24.125 218 23.6773 218 23.125L216 23.125ZM218 32.375C218 31.8227 217.552 31.375 217 31.375C216.448 31.375 216 31.8227 216 32.375L218 32.375ZM216 6.02508e-08L216 4.625L218 4.625L218 -6.02508e-08L216 6.02508e-08ZM216 13.875L216 23.125L218 23.125L218 13.875L216 13.875ZM216 32.375L216 37L218 37L218 32.375L216 32.375Z" fill="#810000"/>
</svg>
