<svg width="28" height="83" viewBox="0 0 28 83" fill="none" xmlns="http://www.w3.org/2000/svg">
<path d="M0 1H20M19.8919 1.01923V2" stroke="#810000" stroke-width="2" stroke-dasharray="8 8"/>
<path d="M19.2929 82.7071C19.6834 83.0976 20.3166 83.0976 20.7071 82.7071L27.0711 76.3431C27.4616 75.9526 27.4616 75.3195 27.0711 74.9289C26.6805 74.5384 26.0474 74.5384 25.6569 74.9289L20 80.5858L14.3431 74.9289C13.9526 74.5384 13.3195 74.5384 12.9289 74.9289C12.5384 75.3195 12.5384 75.9526 12.9289 76.3431L19.2929 82.7071ZM19 4.1C19 4.65228 19.4477 5.1 20 5.1C20.5523 5.1 21 4.65228 21 4.1L19 4.1ZM21 12.3C21 11.7477 20.5523 11.3 20 11.3C19.4477 11.3 19 11.7477 19 12.3L21 12.3ZM19 20.5C19 21.0523 19.4477 21.5 20 21.5C20.5523 21.5 21 21.0523 21 20.5L19 20.5ZM21 28.7C21 28.1477 20.5523 27.7 20 27.7C19.4477 27.7 19 28.1477 19 28.7L21 28.7ZM19 36.9C19 37.4523 19.4477 37.9 20 37.9C20.5523 37.9 21 37.4523 21 36.9L19 36.9ZM21 45.1C21 44.5477 20.5523 44.1 20 44.1C19.4477 44.1 19 44.5477 19 45.1L21 45.1ZM19 53.3C19 53.8523 19.4477 54.3 20 54.3C20.5523 54.3 21 53.8523 21 53.3L19 53.3ZM21 61.5C21 60.9477 20.5523 60.5 20 60.5C19.4477 60.5 19 60.9477 19 61.5L21 61.5ZM19 69.7C19 70.2523 19.4477 70.7 20 70.7C20.5523 70.7 21 70.2523 21 69.7L19 69.7ZM21 77.9C21 77.3477 20.5523 76.9 20 76.9C19.4477 76.9 19 77.3477 19 77.9L21 77.9ZM19 4.37114e-08L19 4.1L21 4.1L21 -4.37114e-08L19 4.37114e-08ZM19 12.3L19 20.5L21 20.5L21 12.3L19 12.3ZM19 28.7L19 36.9L21 36.9L21 28.7L19 28.7ZM19 45.1L19 53.3L21 53.3L21 45.1L19 45.1ZM19 61.5L19 69.7L21 69.7L21 61.5L19 61.5ZM19 77.9L19 82L21 82L21 77.9L19 77.9Z" fill="#810000"/>
</svg>
