<svg width="91" height="90" viewBox="0 0 91 90" fill="none" xmlns="http://www.w3.org/2000/svg">
<g id="Asset (2) 1" clip-path="url(#clip0_557_1089)">
<g id="Layer 2">
<g id="Layer 1">
<path id="Vector" d="M85.0063 49.9715C87.1196 48.892 88.8277 47.1587 89.8764 45.0299C90.925 42.9011 91.2582 40.4906 90.8262 38.1571C89.9797 33.2802 86.2676 29.6818 81.3681 28.9905C80.7791 28.9074 80.2169 28.6909 79.7243 28.3575C79.2318 28.0241 78.8219 27.5826 78.5259 27.0667C78.2299 26.5507 78.0557 25.974 78.0166 25.3805C77.9774 24.787 78.0744 24.1923 78.3 23.642C79.1979 21.452 79.3781 19.0336 78.8147 16.7346C78.2512 14.4357 76.9732 12.3747 75.1643 10.8481C73.3555 9.32153 71.1091 8.40799 68.7482 8.23891C66.3873 8.06982 64.0336 8.6539 62.0257 9.90714C61.5213 10.2221 60.9516 10.4176 60.3601 10.4789C59.7686 10.5402 59.171 10.4656 58.6127 10.2608C58.0544 10.056 57.5503 9.72647 57.1387 9.29723C56.7272 8.86799 56.4191 8.35043 56.2379 7.78403C55.5419 5.51507 54.1316 3.53161 52.2171 2.12899C50.3027 0.726377 47.9864 -0.0203717 45.6132 -6.16658e-05H45.5791C43.2117 -0.0261767 40.8989 0.710898 38.9833 2.10199C37.0676 3.49308 35.6508 5.46421 34.9429 7.72342C34.7578 8.28811 34.4462 8.8031 34.032 9.22916C33.6177 9.65523 33.1117 9.98113 32.5524 10.182C31.9931 10.383 31.3954 10.4536 30.8047 10.3886C30.214 10.3235 29.646 10.1245 29.1438 9.80676C27.1435 8.54415 24.7944 7.94809 22.4341 8.10422C20.0738 8.26035 17.8238 9.16062 16.0072 10.6757C14.1906 12.1908 12.901 14.2427 12.3236 16.5367C11.7463 18.8306 11.9109 21.2486 12.7938 23.4431C13.0189 23.9955 13.1145 24.592 13.0732 25.187C13.032 25.782 12.855 26.3597 12.5559 26.8757C12.2568 27.3917 11.8434 27.8323 11.3476 28.1638C10.8517 28.4952 10.2865 28.7087 9.69536 28.7878C7.34979 29.1053 5.16537 30.1586 3.45629 31.7962C1.74722 33.4338 0.601576 35.5713 0.184146 37.9012C-0.233285 40.2311 0.0990119 42.6334 1.13324 44.7625C2.16747 46.8916 3.85032 48.6378 5.93975 49.7499C6.46449 50.0295 6.91847 50.4253 7.26705 50.907C7.61564 51.3886 7.84964 51.9436 7.95121 52.5294C8.05277 53.1153 8.01923 53.7166 7.85313 54.2875C7.68703 54.8584 7.39276 55.3839 6.99276 55.8238C3.66328 59.4867 3.10269 64.6249 5.56476 68.9185C7.61396 72.4905 11.2256 74.553 15.1725 74.553C15.9848 74.5522 16.7947 74.4665 17.5891 74.2973C18.1709 74.1739 18.7732 74.185 19.3501 74.3299C19.9269 74.4748 20.463 74.7496 20.9174 75.1333C21.3718 75.517 21.7326 75.9995 21.9721 76.5439C22.2115 77.0883 22.3235 77.6803 22.2993 78.2746C22.2066 80.6388 22.8658 82.9716 24.1823 84.9376C25.4987 86.9036 27.4046 88.4016 29.6259 89.2163C31.8473 90.0309 34.2697 90.1204 36.5451 89.4717C38.8204 88.823 40.8316 87.4696 42.2894 85.606C42.6559 85.1378 43.1246 84.7595 43.6595 84.4999C44.1945 84.2403 44.7817 84.1063 45.3763 84.1081C45.971 84.11 46.5573 84.2476 47.0907 84.5104C47.624 84.7733 48.0903 85.1545 48.454 85.6249C49.4783 86.9789 50.8017 88.0777 52.3208 88.8356C53.8399 89.5936 55.5137 89.9901 57.2114 89.9943C58.5384 89.9916 59.8548 89.7577 61.1015 89.303C63.3433 88.5238 65.2735 87.0413 66.6044 85.0762C67.9354 83.1111 68.596 80.7686 68.4877 78.3977C68.4675 77.8032 68.5833 77.2121 68.8262 76.6692C69.0691 76.1263 69.4327 75.646 69.8894 75.2649C70.3461 74.8839 70.8837 74.6121 71.4613 74.4704C72.0389 74.3286 72.6413 74.3206 73.2224 74.4469C75.5346 74.9783 77.9565 74.7493 80.1281 73.7939C82.2996 72.8384 84.1048 71.2076 85.2752 69.1439C87.7619 64.8655 87.2297 59.7234 83.9211 56.0416C83.5253 55.5993 83.2355 55.0727 83.0736 54.5017C82.9118 53.9308 82.8821 53.3304 82.9869 52.7462C83.0917 52.1621 83.3281 51.6094 83.6784 51.1303C84.0286 50.6512 84.4834 50.2581 85.0082 49.981L85.0063 49.9715ZM81.62 43.5321C80.1118 44.3247 78.8046 45.4512 77.7979 46.8257C76.7912 48.2002 76.1117 49.7865 75.8112 51.4635C75.5107 53.1406 75.5971 54.8641 76.0639 56.5027C76.5306 58.1412 77.3654 59.6516 78.5045 60.9185C80.2678 62.8787 79.3113 64.9147 78.9761 65.4905C78.6409 66.0662 77.3474 67.9071 74.7698 67.3446C73.1051 66.9819 71.3796 67.0043 69.7249 67.4099C68.0702 67.8155 66.53 68.5937 65.2217 69.6851C63.9135 70.7765 62.8718 72.1523 62.1761 73.7075C61.4805 75.2627 61.1492 76.9563 61.2075 78.659C61.2984 81.2973 59.2568 82.2405 58.6299 82.4659C58.0031 82.6912 55.8308 83.2689 54.2153 81.1818C53.1768 79.8303 51.8414 78.7357 50.3124 77.9827C48.7834 77.2296 47.1017 76.8383 45.3973 76.839H45.3651C43.6663 76.8322 41.9886 77.215 40.4609 77.958C38.9333 78.701 37.5963 79.7844 36.5527 81.1249C34.9259 83.2083 32.7649 82.6136 32.1305 82.3844C31.496 82.1552 29.479 81.1988 29.5737 78.5624C29.6418 76.8604 29.3203 75.1653 28.6338 73.6065C27.9472 72.0476 26.9137 70.6661 25.612 69.5674C24.3104 68.4687 22.775 67.6818 21.123 67.2667C19.471 66.8517 17.7461 66.8194 16.0797 67.1723C13.4983 67.7196 12.2142 65.873 11.8828 65.2954C11.5514 64.7177 10.6063 62.6761 12.3809 60.7234C13.527 59.463 14.3702 57.9575 14.846 56.3217C15.3219 54.6859 15.4179 52.963 15.1267 51.2844C14.8355 49.6059 14.1648 48.016 13.1657 46.6361C12.1667 45.2561 10.8657 44.1226 9.36203 43.3219C7.03443 42.0814 7.23707 39.8427 7.3545 39.1855C7.47192 38.5283 8.05903 36.3636 10.6745 36.0056C12.3627 35.7769 13.9763 35.1656 15.3923 34.2183C16.8083 33.2711 17.9893 32.013 18.8452 30.54C19.7011 29.067 20.2092 27.4179 20.3309 25.7187C20.4526 24.0194 20.1846 22.3148 19.5474 20.7348C18.5607 18.2878 20.1554 16.7026 20.6667 16.2765C21.1781 15.8503 23.0246 14.5719 25.2556 15.9734C26.696 16.8831 28.325 17.4518 30.0185 17.6363C31.712 17.8208 33.4253 17.6161 35.0277 17.0379C36.6302 16.4598 38.0794 15.5233 39.265 14.3C40.4506 13.0767 41.3412 11.5989 41.8689 9.9791C42.6814 7.481 44.8992 7.28214 45.5829 7.28214C46.2495 7.28214 48.4881 7.48668 49.2911 9.99994C49.8101 11.6223 50.6926 13.1049 51.8714 14.3345C53.0501 15.5642 54.494 16.5085 56.093 17.0956C57.692 17.6827 59.4039 17.897 61.0983 17.7222C62.7927 17.5475 64.4248 16.9882 65.8703 16.0871C68.1108 14.6893 69.9479 15.9848 70.4573 16.4147C70.9668 16.8446 72.552 18.4393 71.552 20.8806C70.906 22.457 70.6285 24.1601 70.7407 25.8601C70.853 27.56 71.3519 29.2119 72.1996 30.6896C73.0473 32.1674 74.2212 33.4321 75.6319 34.3872C77.0426 35.3422 78.6528 35.9625 80.3397 36.2007C82.9533 36.5795 83.5272 38.7443 83.6408 39.4015C83.7544 40.0586 83.9552 42.2973 81.6276 43.5246L81.62 43.5321Z" fill="#810000"/>
<path id="Vector_2" d="M69.2961 36.6496C68.5303 36.5416 67.7994 36.2601 67.1589 35.8265C66.5185 35.393 65.9856 34.8188 65.6008 34.148C65.2161 33.4771 64.9897 32.7272 64.9388 31.9555C64.888 31.1838 65.0141 30.4106 65.3076 29.6951C67.1769 25.1326 62.1031 20.8504 57.9214 23.4602C57.2653 23.8699 56.5243 24.1242 55.755 24.2039C54.9857 24.2835 54.2083 24.1863 53.4822 23.9198C52.7562 23.6532 52.1006 23.2243 51.5656 22.6657C51.0305 22.1072 50.6302 21.4338 50.395 20.697C48.8931 16 42.2512 15.9811 40.7361 20.6705C40.4969 21.406 40.0928 22.0772 39.5547 22.6327C39.0166 23.1883 38.3586 23.6136 37.6311 23.8761C36.9036 24.1387 36.1257 24.2315 35.3568 24.1476C34.5879 24.0638 33.8484 23.8053 33.1946 23.3921C29.028 20.7576 23.9278 25.0114 25.7724 29.5852C26.0614 30.3025 26.1828 31.0763 26.1274 31.8476C26.072 32.6189 25.8413 33.3673 25.4527 34.0359C25.0642 34.7045 24.5281 35.2755 23.8854 35.7055C23.2427 36.1355 22.5103 36.4131 21.7441 36.5171C16.8578 37.178 15.6836 43.714 20.0396 46.0322C20.7214 46.3966 21.3111 46.9119 21.7636 47.5387C22.2162 48.1655 22.5197 48.8873 22.651 49.6492C22.7823 50.4111 22.738 51.1929 22.5215 51.9351C22.3049 52.6772 21.9218 53.3602 21.4013 53.9318C18.0832 57.5796 21.388 63.339 26.2118 62.3182C26.9683 62.1578 27.7515 62.1723 28.5016 62.3606C29.2516 62.5489 29.9488 62.9061 30.5398 63.4049C31.1308 63.9036 31.6001 64.5308 31.9118 65.2386C32.2236 65.9463 32.3695 66.7159 32.3386 67.4887C32.1492 72.4129 38.3744 74.7046 41.4141 70.8201C41.8908 70.2112 42.5001 69.7192 43.1958 69.3816C43.8914 69.0439 44.6549 68.8696 45.4281 68.8718C46.2014 68.8739 46.9639 69.0526 47.6576 69.3942C48.3513 69.7358 48.9578 70.2313 49.431 70.8428C52.448 74.7443 58.6922 72.4905 58.5217 67.5625C58.4954 66.7896 58.6459 66.0208 58.9618 65.3148C59.2776 64.6088 59.7505 63.9843 60.3444 63.4889C60.9383 62.9934 61.6375 62.6402 62.3887 62.456C63.1398 62.2718 63.9231 62.2616 64.6788 62.4261C69.4969 63.4754 72.832 57.7349 69.5348 54.0682C69.0178 53.493 68.639 52.8074 68.4272 52.0636C68.2154 51.3198 68.1763 50.5375 68.3127 49.7763C68.4492 49.0151 68.7576 48.2951 69.2146 47.6711C69.6716 47.0472 70.2649 46.5359 70.9495 46.1761C75.313 43.8826 74.1786 37.339 69.2961 36.6496Z" fill="#810000"/>
</g>
</g>
</g>
<defs>
<clipPath id="clip0_557_1089">
<rect width="91" height="90" fill="white"/>
</clipPath>
</defs>
</svg>
