<svg width="91" height="91" viewBox="0 0 91 91" fill="none" xmlns="http://www.w3.org/2000/svg">
<g id="Asset (7) 1" clip-path="url(#clip0_557_1099)">
<g id="Layer 2">
<g id="Layer 1">
<path id="Vector" d="M45.0501 87.2327C44.7445 82.7218 43.9532 78.257 42.69 73.9163C41.3237 69.2745 40.0593 67.3138 39.7237 66.9926C39.8943 67.156 40.6062 67.5793 41.6147 67.4029C42.2049 67.3097 42.7426 67.0089 43.1312 66.5544L36.496 64.4284C36.5682 65.0989 36.8859 65.7187 37.3878 66.1682C38.1794 66.8923 39.1231 66.9536 39.4549 66.8719C38.9785 66.9907 36.9317 68.0231 33.2498 71.3169C29.8422 74.3815 26.7379 77.7684 23.9802 81.4305L18.3146 77.1804C21.0162 73.5446 23.3097 69.6218 25.1537 65.4831C27.0985 61.0733 27.3784 58.7636 27.3302 58.3031C27.4068 58.6167 27.5479 58.9108 27.7446 59.1666C27.9412 59.4224 28.1891 59.6342 28.4722 59.7885C28.9502 60.079 29.5116 60.2006 30.0666 60.1338L26.4051 54.2424C26.059 54.7953 25.9204 55.4534 26.0139 56.0992C26.1586 57.1594 26.8389 57.8092 27.1467 57.9559C26.7036 57.7405 24.4752 57.2132 19.5456 57.384C14.9441 57.5523 10.3692 58.1622 5.884 59.2055L4.26367 52.2929C8.69275 51.2373 12.9943 49.7033 17.0928 47.7179C21.4218 45.5994 23.1274 44.0193 23.3832 43.6331C23.2392 43.9232 23.1576 44.2403 23.1435 44.5639C23.1295 44.8876 23.1833 45.2106 23.3016 45.5121C23.4746 46.0271 23.8096 46.4721 24.2564 46.7803L25.1426 39.9438C24.5741 40.1568 24.0932 40.5542 23.7763 41.0727C23.2349 41.9491 23.3313 42.8514 23.4629 43.1504C23.2646 42.6992 21.8982 40.8666 18.018 37.8494C14.3628 35.0298 10.4388 32.5782 6.30299 30.5302L9.43057 24.1616C13.5513 26.1802 17.8716 27.7615 22.3209 28.8796C27.0225 30.04 29.3492 29.9416 29.7922 29.8079C29.4824 29.9398 29.2041 30.1363 28.9762 30.3845C28.7482 30.6326 28.5758 30.9266 28.4704 31.2469C28.2706 31.7654 28.244 32.3347 28.3944 32.8697L33.324 28.0923C32.7845 27.9207 32.2037 27.9305 31.6703 28.1202C30.7433 28.4358 30.2669 29.1432 30.1779 29.4366C30.3132 28.9947 30.4578 26.6645 29.4103 21.9187C28.4 17.4312 26.9314 13.0598 25.0277 8.87334L31.4682 5.91557C33.3984 10.1088 35.7423 14.0983 38.4649 17.8246C41.3756 21.7757 43.1739 23.1794 43.6207 23.3948C43.3315 23.2611 42.449 23.1478 41.5814 23.6566C41.0687 23.9527 40.6675 24.4094 40.4394 24.9563L47.2748 24.2637C46.9758 23.8098 46.539 23.4642 46.0289 23.2778C45.7275 23.1516 45.403 23.0901 45.0763 23.0971C44.7497 23.1041 44.4281 23.1796 44.1324 23.3187C44.5235 23.0699 46.1365 21.3951 48.3519 17.1042C50.4353 13.0352 52.0744 8.75291 53.2407 4.33179L60.1002 6.1291C58.9439 10.5973 58.2206 15.1668 57.9404 19.7742C57.6568 24.7038 58.1258 26.9467 58.3335 27.3868C58.1926 27.0785 57.5641 26.3897 56.5185 26.2207C55.8893 26.1136 55.2425 26.2305 54.6905 26.5512L60.4655 30.3519C60.538 29.8062 60.4278 29.2519 60.1522 28.7756C60.0049 28.4901 59.7999 28.2383 59.5504 28.0363C59.3008 27.8343 59.012 27.6864 58.7024 27.6021C59.1603 27.6671 61.4721 27.4313 65.9142 25.5802C70.0939 23.8198 74.0673 21.6037 77.7626 18.9721L81.8876 24.7428C78.1633 27.4293 74.7053 30.4679 71.5612 33.8166C68.1871 37.4298 67.1118 39.4536 66.9765 39.9271C67.0673 39.5966 67.0284 38.6478 66.322 37.8345C65.8848 37.329 65.2796 36.9992 64.6183 36.9062L66.6131 43.5811C67.0582 43.2042 67.3579 42.6834 67.4603 42.1087C67.5329 41.7879 67.5374 41.4553 67.4735 41.1326C67.4096 40.8099 67.2788 40.5042 67.0896 40.2353C67.401 40.5806 69.3254 41.8896 73.9231 43.3527C78.2309 44.7093 82.6741 45.5897 87.1731 45.9781L86.5891 53.0504C82.0469 52.6899 77.4803 52.7782 72.9554 53.3141C68.0907 53.9064 65.9104 54.7995 65.5397 55.0557C65.8159 54.87 66.3776 54.1273 66.3591 53.069C66.3547 52.3979 66.1009 51.7525 65.6472 51.2587L62.7551 57.6198C63.3822 57.6417 63.9962 57.4367 64.4848 57.0424C65.2542 56.4315 65.4729 55.596 65.4581 55.2859C65.4803 55.7482 66.1255 57.9967 68.7043 62.1168C71.1139 65.9469 73.9202 69.5118 77.0767 72.7521L72.0228 77.7263C68.8379 74.5043 65.3283 71.6215 61.55 69.1241C57.4806 66.4486 55.2467 65.7467 54.7887 65.7114C55.1039 65.7337 55.9623 65.5258 56.6 64.7589C57.0119 64.2666 57.2307 63.6409 57.2155 62.9988L50.8176 65.8191C51.2976 66.278 51.9304 66.5426 52.5937 66.5618C53.6319 66.6008 54.3716 66.0642 54.5681 65.7987C54.2956 66.17 53.3575 68.3201 52.6623 73.1681C52.0293 77.6759 51.8486 82.2358 52.1228 86.7797L45.0501 87.2327ZM41.3533 60.3548C41.4813 60.3548 41.5925 60.3696 41.6815 60.3808C43.7505 60.637 45.4839 62.2375 47.0746 65.4626C47.2179 65.0046 47.3656 64.5751 47.5176 64.1741C48.1647 62.4863 49.3011 60.1728 51.6908 59.5898C51.7372 59.5768 51.7928 59.5657 51.8521 59.5527C51.9189 59.5007 51.9819 59.458 52.0375 59.4208C54.0639 58.045 56.537 58.7097 58.2204 59.3299C58.6245 59.4784 59.0466 59.6505 59.4866 59.846C59.3012 59.406 59.1436 58.9827 59.0064 58.576C58.428 56.8827 57.8236 54.3984 59.2252 52.3913C59.2678 52.3319 59.3197 52.2595 59.3828 52.1815C59.3939 52.1313 59.405 52.0849 59.4161 52.0441C59.9482 50.0017 61.7929 48.5701 65.3747 47.5378C64.9779 47.3298 64.6071 47.12 64.2623 46.9084C63.3891 46.3773 60.7306 44.762 60.4469 42.0475C60.4469 41.9509 60.4284 41.8302 60.4265 41.6891C60.4061 41.652 60.3895 41.6167 60.3728 41.5851C59.2808 39.3571 60.3839 37.0065 61.309 35.4338C61.5204 35.0773 61.7539 34.706 62.0135 34.3198C61.597 34.4114 61.1965 34.4863 60.8121 34.5444C59.8055 34.7004 56.7335 35.1757 54.7665 33.2781C54.6886 33.2039 54.5922 33.1036 54.4865 32.9811L54.3382 32.9198C52.4213 32.0638 51.3312 30.0289 50.9344 26.373C50.6872 26.6936 50.44 26.9937 50.1929 27.2735C49.5495 28.0162 47.6437 30.1978 45.0834 30.1978C44.9666 30.1978 44.8498 30.1978 44.7293 30.1848C44.6088 30.1718 44.4957 30.1607 44.3437 30.1347C44.2547 30.1663 44.1732 30.1886 44.1046 30.2071C41.7093 30.857 39.6032 29.3735 38.2276 28.2C37.9421 27.9524 37.6492 27.6863 37.3489 27.4016C37.3662 27.8076 37.3711 28.1969 37.3637 28.5695C37.347 29.6055 37.2932 32.7564 35.0148 34.3253C34.9425 34.3755 34.8535 34.433 34.7478 34.4924C34.6773 34.6076 34.6125 34.7041 34.5624 34.7802C32.9402 37.0083 29.8034 36.9972 28.7726 36.9916C28.4018 36.9916 28.0143 36.978 27.6102 36.9507C27.8957 37.2627 28.1571 37.5653 28.3981 37.8624C29.542 39.2698 30.9806 41.4143 30.2631 43.8039C30.2446 43.8633 30.2224 43.9339 30.1945 44.01C30.2149 44.1436 30.2285 44.278 30.2353 44.4129C30.3744 47.1553 27.9865 49.1513 27.2005 49.8086C26.9112 50.05 26.6016 50.295 26.2735 50.5401C26.7147 50.5977 27.1319 50.6627 27.5249 50.7388C29.3158 51.0786 31.8056 51.799 32.7585 54.0958C32.7752 54.1348 32.7919 54.1793 32.8104 54.2257C32.9272 54.3316 33.0218 54.4281 33.0941 54.5061C34.9387 56.5206 34.3918 59.5824 34.2194 60.5869C34.149 60.9768 34.0631 61.3834 33.9617 61.8067C34.3585 61.5524 34.7385 61.3221 35.1056 61.1179C36.6963 60.2285 39.0637 59.1776 41.2625 60.3139L41.3533 60.3548Z" fill="#810000"/>
<path id="Vector_2" d="M41.7449 91L41.528 87.4518C41.2395 83.2037 40.4936 78.9991 39.3032 74.9115C38.9213 73.6118 38.5617 72.5831 38.2428 71.7755C37.5346 72.3158 36.6614 73.0288 35.6176 73.9627C32.3858 76.8693 29.4423 80.0821 26.8282 83.5564L24.7036 86.3953L13.3483 77.8934L15.4729 75.0526C18.0152 71.6316 20.1732 67.9405 21.9079 64.0459C22.464 62.7926 22.8515 61.7603 23.1296 60.934C22.2304 60.8913 21.0903 60.8765 19.6535 60.9248C15.2854 61.0841 10.9427 61.6636 6.68526 62.6552L3.23696 63.4666L0 49.6489L3.4483 48.8319C7.62234 47.8382 11.676 46.3926 15.5378 44.5206C16.7984 43.9041 17.7792 43.3564 18.53 42.8978C17.8681 42.2869 16.9912 41.5331 15.8455 40.6419C12.3821 37.9718 8.665 35.649 4.74791 33.707L1.56842 32.1474L7.82357 19.4121L11.0031 20.981C14.8937 22.8877 18.9729 24.3812 23.1741 25.4371C24.5645 25.7806 25.688 25.9942 26.5705 26.1278C26.4555 25.2385 26.2683 24.1022 25.9568 22.6966C25.0007 18.4515 23.6104 14.3164 21.8077 10.3568L20.3246 7.13168L33.2168 1.21244L34.7 4.43758C36.5274 8.40781 38.7465 12.1852 41.324 15.7135C42.1861 16.8814 42.9166 17.7763 43.5098 18.4521C43.9881 17.7095 44.561 16.731 45.2099 15.4814C47.1723 11.6446 48.7174 7.60786 49.8187 3.44051L50.7086 0L64.4165 3.59462L63.5211 7.02771C62.4225 11.2677 61.7358 15.6041 61.4707 19.9765C61.3872 21.4173 61.3761 22.5759 61.3983 23.4709C62.2308 23.2128 63.2764 22.8396 64.55 22.3104C68.4824 20.6534 72.2208 18.5682 75.6977 16.0922L78.5787 14.0276L86.8268 25.569L83.9458 27.6337C80.4104 30.182 77.1274 33.0645 74.1423 36.2414C73.1801 37.2719 72.4422 38.1372 71.886 38.8409C72.6851 39.1769 73.7103 39.5613 74.9988 39.9716C79.0536 41.248 83.2355 42.0767 87.4701 42.4429L90.9926 42.7363L89.8228 56.8808L86.3003 56.5874C81.9977 56.2449 77.6719 56.3289 73.3858 56.8381C72.0251 57.0033 70.9257 57.1872 70.058 57.3654C70.4566 58.1397 70.985 59.094 71.7062 60.2378C73.9805 63.8479 76.6277 67.2085 79.6039 70.2641L82.0882 72.7948L71.9806 82.7431L69.4963 80.2106C66.4893 77.1684 63.176 74.4462 59.6093 72.0874C58.4803 71.3447 57.5366 70.7877 56.7691 70.3718C56.5726 71.2314 56.3649 72.3195 56.1721 73.6712C55.5725 77.9367 55.4011 82.2516 55.6604 86.5513L55.8866 90.0921L41.7449 91ZM45.0096 69.6569C45.3804 70.6503 45.7512 71.742 46.0923 72.9118C47.0976 76.3678 47.8218 79.8997 48.2577 83.4728L48.4598 83.4598C48.4231 79.8491 48.6568 76.2406 49.1587 72.6648C49.3256 71.4914 49.5202 70.3885 49.7334 69.3766C49.6871 69.3506 49.6389 69.3264 49.5925 69.2986L47.8313 74.9709L45.1431 69.5474L45.0096 69.6569ZM23.1889 76.4043L23.3484 76.5231C25.6689 73.7279 28.1895 71.1054 30.8901 68.6766C31.7689 67.8893 32.6161 67.1764 33.4152 66.5469C33.3929 66.4968 33.3725 66.4448 33.354 66.3947L28.4355 69.5511L29.8482 63.6968H29.6777C29.3217 64.705 28.8916 65.7875 28.3947 66.9146C26.9244 70.2165 25.1831 73.3906 23.1889 76.4043ZM60.6234 64.3968C61.5337 64.9093 62.4996 65.4997 63.5007 66.157C66.4986 68.1433 69.3386 70.3588 71.9954 72.7837L72.14 72.6407C69.7709 69.9364 67.6181 67.0496 65.7013 64.0069C65.0617 62.9839 64.4907 61.9979 63.9976 61.0696L63.8418 61.0993L66.1555 66.6862L60.6531 64.2427L60.6234 64.3968ZM41.1405 63.8974C41.097 63.8974 41.0536 63.9011 41.0107 63.9085C40.759 63.9644 40.5366 64.1111 40.3859 64.3207L41.4538 65.1878L42.175 64.4321C41.98 64.2333 41.7483 64.0744 41.4927 63.9642C41.4071 63.9308 41.3173 63.9095 41.2258 63.9011H41.1405V63.8974ZM39.1661 63.3552C38.9744 63.3584 38.7839 63.3852 38.5988 63.435L38.8027 64.252L40.0318 64.1536C40.027 63.9289 39.9369 63.7144 39.7797 63.5539C39.7471 63.5232 39.711 63.4964 39.6722 63.474L39.637 63.4536C39.4888 63.3836 39.3261 63.3499 39.1624 63.3552H39.1661ZM52.5366 63.0359C52.2696 63.1027 51.9971 63.3218 51.7246 63.6913L52.4532 64.2297L53.3616 63.3422C53.204 63.1547 52.9787 63.0372 52.735 63.0154C52.689 63.0138 52.6431 63.0169 52.5978 63.0247L52.5366 63.0359ZM53.9641 62.4083C53.9294 62.4372 53.8977 62.4695 53.8696 62.5048C53.7174 62.7078 53.6508 62.9625 53.6842 63.2141L54.9819 63.1361L55.0524 62.1725C54.7007 62.1188 54.3412 62.1841 54.0308 62.3581L54.0179 62.3693L53.9641 62.4083ZM42.3344 56.8901C43.8862 57.1303 45.3403 57.799 46.5336 58.8211C47.5496 57.6265 48.8818 56.7435 50.3768 56.2737C51.7171 55.4594 53.2587 55.0381 54.8262 55.0575C54.8448 53.4864 55.3021 51.9518 56.1462 50.6274C56.6453 49.1448 57.5552 47.835 58.7695 46.8508C57.7795 45.6218 57.1441 44.145 56.9322 42.5803C56.3596 41.1293 56.2123 39.5447 56.5077 38.0128C54.9673 37.7003 53.5411 36.973 52.3827 35.9091C51.0166 35.1741 49.8879 34.0644 49.1291 32.7099C47.8877 33.3838 46.4995 33.7403 45.0875 33.7479C44.9392 33.7479 44.7798 33.7479 44.6259 33.7349C43.0998 34.0643 41.5119 33.9555 40.0448 33.4211C39.4678 34.8682 38.5061 36.1293 37.2639 37.0677C36.2967 38.2891 35.0146 39.2227 33.5561 39.7674C34.0615 41.2449 34.1387 42.8357 33.7785 44.3553C33.8129 45.9227 33.4214 47.47 32.6458 48.8319C33.9855 49.6252 35.0717 50.7845 35.7771 52.174C36.8101 53.3601 37.501 54.8057 37.7756 56.3554C39.3151 56.0956 40.8966 56.2811 42.3344 56.8901ZM28.328 55.5161L29.3625 56.2012C29.4863 56.0342 29.5438 55.8271 29.5238 55.6201C29.5181 55.5785 29.5088 55.5375 29.496 55.4975L29.4811 55.4586C29.4316 55.3435 29.3598 55.2393 29.2698 55.1522C29.0992 54.9928 28.9039 54.8624 28.6914 54.766L28.328 55.5161ZM62.1344 54.4281C61.9509 54.7431 61.8754 55.1095 61.9193 55.4715L62.9112 55.4233L63.0039 54.092C62.7498 54.0595 62.4929 54.126 62.2864 54.2777C62.2508 54.3074 62.2173 54.3397 62.1863 54.3742L62.1473 54.4225L62.1344 54.4281ZM8.49469 54.8347L8.53919 55.0204C12.1339 54.3608 15.7715 53.9631 19.4236 53.8302C20.6045 53.7912 21.7132 53.7856 22.731 53.8153C22.7477 53.7596 22.7662 53.7058 22.7848 53.6501L17.0784 52.9074L21.8374 49.3796C21.7892 49.3406 21.7429 49.3016 21.6984 49.2608C20.7714 49.803 19.7536 50.3507 18.6505 50.891C15.3788 52.4819 11.9821 53.8009 8.49469 54.8347ZM62.8333 52.9947C62.8256 53.0382 62.8225 53.0824 62.824 53.1265C62.8315 53.2447 62.8624 53.3603 62.9149 53.4664C62.9675 53.5726 63.0405 53.6672 63.1299 53.7448L64.0217 52.8647L63.5211 52.148C63.1503 52.4135 62.913 52.679 62.8463 52.939L62.8333 52.9947ZM69.1756 50.1316L69.2534 50.2857C70.2638 50.1 71.3651 49.9274 72.533 49.7844C76.1211 49.3598 79.7356 49.2016 83.347 49.3109L83.3637 49.1085C79.8033 48.6048 76.2901 47.81 72.8593 46.7319C71.6932 46.3606 70.605 45.9707 69.6168 45.5715C69.5816 45.616 69.5445 45.6569 69.5093 45.6977L74.8504 48.5014L69.1756 50.1316ZM25.4377 44.9959L26.3332 45.5919C26.5441 45.3125 26.6691 44.9777 26.6928 44.6283C26.6928 44.6097 26.6928 44.5911 26.6928 44.5726C26.6939 44.5546 26.6939 44.5367 26.6928 44.5187L26.6799 44.4296C26.6726 44.3963 26.6633 44.3634 26.6521 44.3312C26.5688 44.1187 26.4184 43.9394 26.2238 43.8206L25.4377 44.9959ZM25.8957 42.0734L26.3221 43.2859C26.5142 43.2276 26.6796 43.1033 26.7892 42.9349C26.8095 42.9048 26.8263 42.8724 26.8393 42.8384L26.8615 42.779C26.8606 42.7741 26.8606 42.769 26.8615 42.7641C26.9413 42.4949 26.8875 42.1421 26.7003 41.7151L25.8957 42.0734ZM64.1663 42.2145C64.2554 42.3576 64.3572 42.4925 64.4703 42.6174L65.2619 41.897L64.3906 40.809C64.1833 40.9577 64.037 41.1767 63.979 41.4254C63.9704 41.4676 63.9655 41.5105 63.9642 41.5535V41.6427C63.9856 41.8466 64.0548 42.0425 64.1663 42.2145ZM63.5693 40.0589C63.5914 40.0975 63.6168 40.1342 63.6453 40.1684C63.7979 40.325 64.0037 40.4184 64.2219 40.4302L64.3572 39.2029L63.5563 38.9912C63.4321 39.4406 63.4303 39.7896 63.5563 40.0347L63.5693 40.0589ZM11.0123 28.9946C14.2179 30.7789 17.286 32.8003 20.1911 35.042C21.1348 35.7847 21.9987 36.4921 22.7699 37.1754C22.8218 37.1419 22.8738 37.1104 22.9257 37.0807L19.0584 32.8529L24.8426 33.215C24.8315 33.1537 24.8222 33.0906 24.813 33.0293C23.7729 32.8436 22.6513 32.6152 21.4759 32.3237C17.9281 31.4344 14.4565 30.2641 11.0939 28.8238L11.0123 28.9946ZM66.6301 33.8036L66.784 33.8685C67.431 33.085 68.1615 32.255 68.9661 31.3935C71.4602 28.7394 74.1424 26.2691 76.9917 24.0019L76.8768 23.8422C73.8185 25.7767 70.6051 27.4535 67.2697 28.8554C66.1333 29.3288 65.045 29.7373 64.0272 30.0715C64.0272 30.131 64.0272 30.1885 64.0272 30.2479L69.8819 28.9742L66.6301 33.8036ZM30.4897 32.2532L30.7752 33.2354C30.9568 33.1862 31.1322 33.1165 31.298 33.0274C31.4594 32.938 31.5978 32.8122 31.7022 32.6598V32.6487L31.7429 32.58C31.759 32.5499 31.7733 32.5189 31.7856 32.4871C31.8544 32.2843 31.8544 32.0643 31.7856 31.8614L30.4897 32.2532ZM32.6291 30.1885L32.2027 31.4659C32.4001 31.5402 32.6164 31.5474 32.8182 31.4864C32.8499 31.4753 32.8808 31.4623 32.9109 31.4474L32.9795 31.4084L33.0036 31.3935C33.0388 31.3694 33.0703 31.3434 33.1037 31.3155C33.3316 31.0823 33.4924 30.7917 33.5691 30.4744L32.6291 30.1885ZM55.8292 29.7076C55.8671 29.721 55.9062 29.7309 55.9459 29.7373C56.1483 29.7614 56.3527 29.7127 56.5225 29.5999L55.8736 28.5267L55.1117 28.8758C55.231 29.1996 55.4497 29.4772 55.7365 29.6686L55.7772 29.6872L55.8292 29.7076ZM42.5143 25.7806L42.1305 26.6087C42.5569 26.8056 42.9085 26.8674 43.1854 26.7944H43.2002L43.2651 26.7721C43.2984 26.7593 43.3307 26.7438 43.3615 26.7257C43.5337 26.6214 43.6647 26.4607 43.7323 26.2708L42.5143 25.7806ZM45.0022 26.6552C45.0448 26.658 45.0875 26.658 45.1301 26.6552C45.4541 26.6213 45.7638 26.5042 46.0293 26.3154L45.462 25.4204L44.281 26.1631C44.3926 26.3561 44.5647 26.5069 44.7705 26.592C44.8017 26.6047 44.834 26.6147 44.8669 26.6217L44.954 26.6385L45.0022 26.6552ZM33.5005 24.5088L33.6859 24.5403L33.4504 18.7678L37.5921 22.7338C37.6236 22.6818 37.657 22.6279 37.6903 22.5778C37.0229 21.7868 36.3258 20.9067 35.6121 19.932C33.4462 16.9668 31.5076 13.8417 29.813 10.5833L29.6406 10.6632C30.9909 14.0746 32.0731 17.5865 32.8775 21.1667C33.1371 22.3401 33.3466 23.4616 33.5005 24.5088ZM53.508 17.2676L54.1235 22.9566L54.3089 22.9027C54.3089 21.8797 54.333 20.7675 54.4016 19.5829C54.6237 15.9236 55.1113 12.2853 55.8607 8.69691L55.6753 8.64677C54.5603 12.1209 53.1647 15.4983 51.5021 18.7455C50.9459 19.8354 50.3712 20.8436 49.8113 21.7515L49.93 21.8964L53.508 17.2676Z" fill="#810000"/>
</g>
</g>
</g>
<defs>
<clipPath id="clip0_557_1099">
<rect width="91" height="91" fill="white"/>
</clipPath>
</defs>
</svg>
