<svg width="106" height="91" viewBox="0 0 106 91" fill="none" xmlns="http://www.w3.org/2000/svg">
<g id="Asset (25) 1" clip-path="url(#clip0_557_1117)">
<g id="Layer 2">
<g id="Layer 1">
<path id="Vector" d="M105.638 90.5783C68.2819 58.4426 37.7236 58.4426 0.361328 90.5783C37.7236 58.4426 52.9998 32.1436 52.9998 0C52.9998 32.1436 68.2819 58.4426 105.638 90.5783Z" fill="#EEEBDD"/>
<path id="Vector_2" d="M105.277 91C95.8087 82.8519 87.0398 76.9643 78.4498 73.0093C69.7399 68.9879 61.4152 67.0338 53 67.0338C44.5848 67.0338 36.2581 68.9859 27.5502 73.0093C18.968 76.9721 10.1913 82.8597 0.72304 91.0078L0 90.1703C37.2523 58.1166 52.4479 31.9933 52.4479 0L53.5521 0C53.5521 31.9933 68.7458 58.1166 106 90.1703L105.277 91ZM53 65.9309C61.5802 65.9309 70.0563 67.9181 78.9155 72.0078C83.7921 74.2606 88.7394 77.1243 93.8125 80.6596C89.1756 76.2537 85.0122 71.9785 81.2378 67.7542C74.4652 60.1682 69.1014 52.9024 64.8378 45.5664C60.5742 38.2303 57.4915 30.9411 55.4442 23.3356C54.2979 19.0795 53.4828 14.7421 53.0059 10.3619C52.529 14.7421 51.7138 19.0795 50.5676 23.3356C48.5183 30.9489 45.4454 38.2127 41.172 45.5664C36.8986 52.92 31.5446 60.1682 24.7641 67.7542C20.9917 71.9785 16.8303 76.2537 12.1895 80.6596C17.2724 77.1243 22.2099 74.2606 27.0865 72.0078C35.9437 67.9181 44.4198 65.9309 53 65.9309Z" fill="#EEEBDD"/>
</g>
</g>
</g>
<defs>
<clipPath id="clip0_557_1117">
<rect width="106" height="91" fill="white"/>
</clipPath>
</defs>
</svg>
