<svg width="85" height="97" viewBox="0 0 85 97" fill="none" xmlns="http://www.w3.org/2000/svg">
<g id="Asset (18) 1" clip-path="url(#clip0_557_1108)">
<g id="Layer 2">
<g id="Layer 1">
<path id="Vector" d="M84.5471 72.6859C56.5126 56.5626 42.521 64.6667 42.5722 96.9981C42.521 64.6667 28.5057 56.6025 0.526135 72.8057C28.5057 56.6025 28.4813 40.4387 0.453125 24.3141C28.4813 40.4387 42.4723 32.334 42.4261 0C42.4723 32.334 56.4883 40.3962 84.474 24.1868C56.4883 40.395 56.5126 56.5613 84.5471 72.6859Z" fill="#810000"/>
<path id="Vector_2" d="M41.666 97C41.6529 89.055 40.7768 82.5287 39.0601 77.5989C37.3753 72.7851 34.8649 69.3825 31.572 67.4922C28.279 65.6018 24.0707 65.1302 19.0667 66.1016C13.9411 67.0916 7.86257 69.6239 0.980949 73.5974L0.0711375 72.0271C6.94527 68.0462 12.1683 64.0222 15.5754 60.0787C18.9076 56.2138 20.5924 52.3321 20.5924 48.5327C20.5924 44.7334 18.8889 40.8591 15.5379 37.0092C12.114 33.0695 6.88536 29.0624 0 25.1002L0.904196 23.528C7.79143 27.4902 13.8849 29.9944 19.0143 30.9733C24.022 31.9297 28.2266 31.4487 31.5139 29.5434C34.8012 27.6381 37.3173 24.2318 38.9721 19.4124C40.6738 14.4769 41.5312 7.94686 41.52 0H43.334C43.3452 7.94312 44.2213 14.4713 45.938 19.4011C47.6228 24.2149 50.1351 27.6175 53.4262 29.5078C56.7172 31.3981 60.9256 31.8698 65.9314 30.8984C71.057 29.9046 77.1412 27.3817 84.0172 23.3989L84.927 24.9692C78.051 28.9501 72.8355 32.974 69.4227 36.925C66.0924 40.7861 64.3982 44.6679 64.4113 48.4747C64.4244 52.2816 66.1167 56.1483 69.4658 59.9982C72.8898 63.938 78.1184 67.9451 85.0037 71.9073L84.0977 73.4795C77.2104 69.5173 71.1188 67.013 65.9894 66.0342C60.9817 65.0778 56.7752 65.5588 53.4879 67.4641C50.2006 69.3694 47.6846 72.7757 46.0297 77.5951C44.328 82.5306 43.4725 89.0606 43.4838 97.0056L41.666 97ZM23.8648 63.792C27.1334 63.792 30.0163 64.5013 32.4762 65.9163C36.1585 68.0349 38.9497 71.7651 40.7749 77.0018C41.5763 79.3685 42.1713 81.8 42.5534 84.2693C42.9283 81.7988 43.5165 79.3653 44.3112 76.9962C46.1196 71.7557 48.8996 68.0125 52.5744 65.8863C56.2492 63.7602 60.8769 63.2043 66.3264 64.2449C68.777 64.7349 71.1809 65.4349 73.5113 66.3374C71.5557 64.7784 69.7392 63.0525 68.0824 61.1792C64.445 56.9924 62.5973 52.7177 62.5898 48.4691C62.5823 44.2206 64.4188 39.9402 68.0431 35.7422C69.6935 33.866 71.5024 32.1353 73.4495 30.569C71.1218 31.4794 68.7198 32.187 66.2702 32.6839C64.5761 33.0223 62.8535 33.1978 61.1259 33.208C57.8592 33.208 54.9762 32.4987 52.5145 31.0837C48.8322 28.9651 46.041 25.2349 44.2176 19.9982C43.4187 17.6299 42.8256 15.1971 42.4448 12.727C42.0695 15.1972 41.482 17.6306 40.6888 20C38.8804 25.2405 36.1004 28.9838 32.4237 31.1099C28.7471 33.2361 24.1231 33.7957 18.6736 32.7532C16.2229 32.2635 13.8191 31.5634 11.4887 30.6607C13.4443 32.2197 15.2608 33.9456 16.9176 35.8189C20.555 40.0057 22.4027 44.2804 22.4083 48.529C22.4139 52.7776 20.5812 57.0579 16.9551 61.256C15.3063 63.1337 13.498 64.8651 11.5505 66.431C13.8752 65.5212 16.2741 64.8136 18.7204 64.316C20.4146 63.9777 22.1372 63.8023 23.8648 63.792Z" fill="#810000"/>
</g>
</g>
</g>
<defs>
<clipPath id="clip0_557_1108">
<rect width="85" height="97" fill="white"/>
</clipPath>
</defs>
</svg>
