<svg width="67" height="91" viewBox="0 0 67 91" fill="none" xmlns="http://www.w3.org/2000/svg">
<g id="Asset (48) 1" clip-path="url(#clip0_557_1126)">
<g id="Layer 2">
<g id="Layer 1">
<path id="Vector" d="M67 45.2718C66.9559 43.0036 65.606 40.9384 63.4708 39.8807L48.388 32.4224L39.8241 4.48619C39.0157 1.85249 36.4235 0 33.5202 0H33.4991C30.6035 0 28.0094 1.82735 27.1875 4.44751L18.2569 32.8729L3.32383 40.9094C1.23086 42.0348 -0.0422004 44.1445 4.30408e-05 46.4185C0.0422865 48.6925 1.396 50.7577 3.52737 51.8116L18.639 59.2776L27.1856 86.5428C28.0151 89.1959 30.542 90.9903 33.4741 90.9903H33.501C36.4196 90.9903 38.9485 89.221 39.7991 86.5815L48.7202 58.8271L63.6782 50.7713C65.7731 49.6517 67.0423 47.542 67 45.2718ZM40.0353 49.3461C38.6029 50.0966 37.5149 51.3767 36.9995 52.9177L33.5797 63.553L30.3692 53.3044C30.1024 52.4927 29.6759 51.7435 29.115 51.1016C28.5541 50.4597 27.8705 49.9383 27.105 49.5685L20.0311 46.0724L26.9744 42.3481C28.4228 41.5876 29.517 40.285 30.0217 38.7204L33.4204 27.9052L36.6193 38.3472V38.3743C36.884 39.1893 37.3096 39.9419 37.8706 40.5869C38.4316 41.2319 39.1163 41.756 39.8836 42.1276L46.9575 45.6218L40.0353 49.3461Z" fill="#810000"/>
</g>
</g>
</g>
<defs>
<clipPath id="clip0_557_1126">
<rect width="67" height="91" fill="white"/>
</clipPath>
</defs>
</svg>
