<svg width="60" height="88" viewBox="0 0 60 88" fill="none" xmlns="http://www.w3.org/2000/svg">
<g id="Asset (10) 1" clip-path="url(#clip0_557_1080)">
<g id="Layer 2">
<g id="Layer 1">
<path id="Vector" d="M0.89094 87.4921L29.2955 65.0697C29.7044 64.752 30.0357 64.3451 30.2641 63.8799C30.4926 63.4147 30.6123 62.9034 30.614 62.3849L30.8363 26.1344C30.8405 25.6166 30.7278 25.1047 30.5067 24.6368C30.2855 24.1689 29.9616 23.7572 29.5592 23.4326L1.42211 0.672145C1.02532 0.349027 0.561218 0.11933 0.0640422 0L0.0470898 23.1909L10.7949 31.891C11.2963 32.2964 11.7001 32.81 11.976 33.3935C12.2519 33.977 12.3929 34.6154 12.3884 35.2612L12.281 52.8653C12.277 53.5111 12.1279 54.1477 11.8449 54.7279C11.5619 55.3081 11.1521 55.8169 10.6461 56.2166L0.0169523 64.6071L0 88C0.320619 87.8763 0.620933 87.7051 0.89094 87.4921Z" fill="#EEEBDD"/>
<path id="Vector_2" d="M30.0602 87.4921L58.4667 65.0697C58.8756 64.752 59.2068 64.3451 59.4353 63.8799C59.6638 63.4147 59.7834 62.9034 59.7852 62.3849L60.0075 26.1344C60.0117 25.6166 59.899 25.1047 59.6778 24.6368C59.4567 24.1689 59.1328 23.7572 58.7304 23.4326L30.5933 0.672145C30.1965 0.349027 29.7324 0.11933 29.2352 0L29.2183 23.1909L39.9661 31.891C40.4675 32.2964 40.8712 32.81 41.1471 33.3935C41.423 33.977 41.564 34.6154 41.5596 35.2612L41.4522 52.8653C41.4482 53.5111 41.2991 54.1477 41.0161 54.7279C40.733 55.3081 40.3233 55.8169 39.8172 56.2166L29.1957 64.6071L29.1787 88C29.4964 87.8761 29.7935 87.7049 30.0602 87.4921Z" fill="#EEEBDD"/>
</g>
</g>
</g>
<defs>
<clipPath id="clip0_557_1080">
<rect width="60" height="88" fill="white"/>
</clipPath>
</defs>
</svg>
