<svg width="135" height="67" viewBox="0 0 135 67" fill="none" xmlns="http://www.w3.org/2000/svg">
<rect x="2" y="42" width="131" height="23" rx="4" fill="#EEEBDD"/>
<path d="M14.368 56.232C13.776 55.64 13.48 54.896 13.48 54C13.48 53.104 13.776 52.36 14.368 51.768C14.96 51.176 15.704 50.88 16.6 50.88C17.496 50.88 18.24 51.176 18.832 51.768C19.424 52.36 19.72 53.104 19.72 54C19.72 54.896 19.424 55.64 18.832 56.232C18.24 56.824 17.496 57.12 16.6 57.12C15.704 57.12 14.96 56.824 14.368 56.232ZM15.052 52.404C14.644 52.82 14.44 53.352 14.44 54C14.44 54.648 14.644 55.18 15.052 55.596C15.46 56.012 15.976 56.22 16.6 56.22C17.224 56.22 17.74 56.012 18.148 55.596C18.556 55.18 18.76 54.648 18.76 54C18.76 53.352 18.556 52.82 18.148 52.404C17.74 51.988 17.224 51.78 16.6 51.78C15.976 51.78 15.46 51.988 15.052 52.404ZM20.6753 53.76C20.6753 51.952 21.0073 50.64 21.6713 49.824C22.3353 49.008 23.3233 48.6 24.6353 48.6H26.0753V49.62H24.6353C23.6833 49.62 22.9713 49.844 22.4993 50.292C22.0353 50.732 21.7473 51.448 21.6353 52.44H21.6473C21.7673 52.264 21.9273 52.104 22.1273 51.96C22.5753 51.64 23.1113 51.48 23.7353 51.48C24.5513 51.48 25.2233 51.748 25.7513 52.284C26.2873 52.812 26.5553 53.484 26.5553 54.3C26.5553 55.124 26.2793 55.8 25.7273 56.328C25.1833 56.856 24.4793 57.12 23.6153 57.12C22.7273 57.12 22.0153 56.824 21.4793 56.232C20.9433 55.64 20.6753 54.816 20.6753 53.76ZM22.1993 52.932C21.8233 53.3 21.6353 53.756 21.6353 54.3C21.6353 54.844 21.8233 55.3 22.1993 55.668C22.5753 56.036 23.0473 56.22 23.6153 56.22C24.1833 56.22 24.6553 56.036 25.0313 55.668C25.4073 55.3 25.5953 54.844 25.5953 54.3C25.5953 53.756 25.4073 53.3 25.0313 52.932C24.6553 52.564 24.1833 52.38 23.6153 52.38C23.0473 52.38 22.5753 52.564 22.1993 52.932ZM28.2782 56.232C27.6862 55.64 27.3902 54.896 27.3902 54C27.3902 53.104 27.6862 52.36 28.2782 51.768C28.8702 51.176 29.6142 50.88 30.5102 50.88C31.4062 50.88 32.1502 51.176 32.7422 51.768C33.3342 52.36 33.6302 53.104 33.6302 54C33.6302 54.896 33.3342 55.64 32.7422 56.232C32.1502 56.824 31.4062 57.12 30.5102 57.12C29.6142 57.12 28.8702 56.824 28.2782 56.232ZM28.9622 52.404C28.5542 52.82 28.3502 53.352 28.3502 54C28.3502 54.648 28.5542 55.18 28.9622 55.596C29.3702 56.012 29.8862 56.22 30.5102 56.22C31.1342 56.22 31.6502 56.012 32.0582 55.596C32.4662 55.18 32.6702 54.648 32.6702 54C32.6702 53.352 32.4662 52.82 32.0582 52.404C31.6502 51.988 31.1342 51.78 30.5102 51.78C29.8862 51.78 29.3702 51.988 28.9622 52.404ZM34.9455 57V51H37.8855C38.4455 51 38.8855 51.14 39.2055 51.42C39.5255 51.7 39.6855 52.06 39.6855 52.5C39.6855 52.7 39.6575 52.884 39.6015 53.052C39.5455 53.212 39.4775 53.34 39.3975 53.436C39.3175 53.524 39.2295 53.6 39.1335 53.664C39.0455 53.72 38.9695 53.76 38.9055 53.784C38.8495 53.8 38.8095 53.808 38.7855 53.808V53.82C38.8095 53.82 38.8575 53.832 38.9295 53.856C39.0015 53.872 39.0935 53.916 39.2055 53.988C39.3255 54.052 39.4375 54.132 39.5415 54.228C39.6455 54.324 39.7335 54.464 39.8055 54.648C39.8855 54.832 39.9255 55.036 39.9255 55.26C39.9255 55.78 39.7455 56.2 39.3855 56.52C39.0335 56.84 38.5375 57 37.8975 57H34.9455ZM35.9055 53.46H37.8255C38.4255 53.46 38.7255 53.2 38.7255 52.68C38.7255 52.16 38.4255 51.9 37.8255 51.9H35.9055V53.46ZM35.9055 56.1H37.8855C38.2375 56.1 38.5055 56.02 38.6895 55.86C38.8735 55.7 38.9655 55.48 38.9655 55.2C38.9655 54.92 38.8735 54.7 38.6895 54.54C38.5055 54.38 38.2375 54.3 37.8855 54.3H35.9055V56.1ZM40.7702 49.26C40.7702 49.1 40.8302 48.96 40.9502 48.84C41.0702 48.72 41.2302 48.66 41.4302 48.66C41.9102 48.66 42.1502 48.98 42.1502 49.62C42.1502 50.516 41.7102 50.996 40.8302 51.06V50.58C41.0622 50.548 41.2382 50.48 41.3582 50.376C41.4862 50.264 41.5502 50.132 41.5502 49.98C41.5502 49.964 41.5382 49.92 41.5142 49.848L41.4902 49.8L41.4422 49.836C41.3782 49.852 41.3342 49.86 41.3102 49.86C41.1582 49.86 41.0302 49.808 40.9262 49.704C40.8222 49.592 40.7702 49.444 40.7702 49.26ZM43.1078 57L44.3078 54.84C44.1078 54.752 43.9078 54.624 43.7078 54.456C43.3078 54.088 43.1078 53.616 43.1078 53.04C43.1078 52.456 43.3198 51.972 43.7438 51.588C44.1678 51.196 44.7318 51 45.4358 51H48.1478V57H47.1878V55.08H45.2678L44.2118 57H43.1078ZM44.4158 52.212C44.1838 52.42 44.0678 52.696 44.0678 53.04C44.0678 53.384 44.1838 53.66 44.4158 53.868C44.6558 54.076 44.9998 54.18 45.4478 54.18H47.1878V51.9H45.4478C44.9998 51.9 44.6558 52.004 44.4158 52.212ZM49.2283 55.14H50.1883C50.2363 55.34 50.3283 55.52 50.4643 55.68C50.7603 56.04 51.2283 56.22 51.8683 56.22C52.3483 56.22 52.7163 56.128 52.9723 55.944C53.2363 55.752 53.3683 55.524 53.3683 55.26C53.3683 54.996 53.2483 54.78 53.0083 54.612C52.7683 54.444 52.4083 54.36 51.9283 54.36H51.2083V53.46H51.9283C52.8083 53.46 53.2483 53.18 53.2483 52.62C53.2483 52.388 53.1283 52.192 52.8883 52.032C52.6563 51.864 52.3163 51.78 51.8683 51.78C51.3563 51.78 50.9483 51.932 50.6443 52.236C50.5323 52.348 50.4403 52.496 50.3683 52.68H49.4083C49.4803 52.352 49.6203 52.052 49.8283 51.78C50.3003 51.18 50.9803 50.88 51.8683 50.88C52.6203 50.88 53.1963 51.04 53.5963 51.36C54.0043 51.68 54.2083 52.08 54.2083 52.56C54.2083 53.208 53.8763 53.644 53.2123 53.868L53.1883 53.88V53.892C53.2123 53.892 53.2603 53.904 53.3323 53.928C53.4043 53.952 53.4963 54 53.6083 54.072C53.7283 54.136 53.8403 54.22 53.9443 54.324C54.0483 54.42 54.1363 54.556 54.2083 54.732C54.2883 54.908 54.3283 55.104 54.3283 55.32C54.3283 55.832 54.1123 56.26 53.6803 56.604C53.2483 56.948 52.6443 57.12 51.8683 57.12C50.8683 57.12 50.1283 56.792 49.6483 56.136C49.4403 55.84 49.3003 55.508 49.2283 55.14ZM55.6525 57V51H56.6125V53.4H57.8125L59.7325 51H60.8725L58.6525 53.82L61.0525 57H59.8525L57.8125 54.3H56.6125V57H55.6525ZM61.9572 57V51H62.9172V55.5L62.9052 55.62H62.9292L66.1572 51H67.2372V57H66.2772V52.5L66.2892 52.38H66.2652L63.0372 57H61.9572ZM72.2814 57V51H73.2414V53.4H74.4414L76.3614 51H77.5014L75.2814 53.82L77.6814 57H76.4814L74.4414 54.3H73.2414V57H72.2814ZM78.8797 56.232C78.2877 55.64 77.9917 54.896 77.9917 54C77.9917 53.104 78.2877 52.36 78.8797 51.768C79.4717 51.176 80.2157 50.88 81.1117 50.88C82.0077 50.88 82.7517 51.176 83.3437 51.768C83.9357 52.36 84.2317 53.104 84.2317 54C84.2317 54.896 83.9357 55.64 83.3437 56.232C82.7517 56.824 82.0077 57.12 81.1117 57.12C80.2157 57.12 79.4717 56.824 78.8797 56.232ZM79.5637 52.404C79.1557 52.82 78.9517 53.352 78.9517 54C78.9517 54.648 79.1557 55.18 79.5637 55.596C79.9717 56.012 80.4877 56.22 81.1117 56.22C81.7357 56.22 82.2517 56.012 82.6597 55.596C83.0677 55.18 83.2717 54.648 83.2717 54C83.2717 53.352 83.0677 52.82 82.6597 52.404C82.2517 51.988 81.7357 51.78 81.1117 51.78C80.4877 51.78 79.9717 51.988 79.5637 52.404ZM85.547 57V51H86.987L88.787 54.72H89.087L90.887 51H92.327V57H91.367V52.2L91.379 52.08H91.355L89.567 55.8H88.307L86.519 52.08H86.495L86.507 52.2V57H85.547ZM94.488 56.232C93.928 55.632 93.648 54.888 93.648 54C93.648 53.112 93.928 52.372 94.488 51.78C95.048 51.18 95.728 50.88 96.528 50.88C97.032 50.88 97.456 50.976 97.8 51.168C98.152 51.36 98.408 51.568 98.568 51.792L98.676 51.972H98.688V51H99.648V57H98.688V56.04H98.676L98.568 56.208C98.424 56.424 98.176 56.632 97.824 56.832C97.472 57.024 97.04 57.12 96.528 57.12C95.728 57.12 95.048 56.824 94.488 56.232ZM95.184 52.404C94.8 52.82 94.608 53.352 94.608 54C94.608 54.648 94.8 55.18 95.184 55.596C95.576 56.012 96.064 56.22 96.648 56.22C97.232 56.22 97.716 56.012 98.1 55.596C98.492 55.18 98.688 54.648 98.688 54C98.688 53.352 98.492 52.82 98.1 52.404C97.716 51.988 97.232 51.78 96.648 51.78C96.064 51.78 95.576 51.988 95.184 52.404ZM101.332 57V51H102.292V53.46H105.652V51H106.612V57H105.652V54.36H102.292V57H101.332ZM107.513 58.38V56.1H108.173L109.553 51H112.073L113.453 56.1H114.113V58.38H113.153V57H108.473V58.38H107.513ZM109.133 56.1H112.493L111.353 51.9H110.273L109.133 56.1ZM115.008 57V51H115.968V55.5L115.956 55.62H115.98L119.208 51H120.288V57H119.328V52.5L119.34 52.38H119.316L116.088 57H115.008Z" fill="black"/>
<rect x="2" y="42" width="131" height="23" rx="4" stroke="#1B1717" stroke-width="2"/>
<rect x="0.5" y="40.5" width="134" height="26" rx="5.5" stroke="#EEEBDD"/>
<rect x="2.31666" y="24.5439" width="128" height="23" rx="4" transform="rotate(-10 2.31666 24.5439)" fill="#EEEBDD"/>
<path d="M20.9165 38.8107L19.4787 30.6565L20.4241 30.4898L20.5908 31.4352L20.6026 31.4332L20.6895 31.2351C20.7874 31.0066 20.9929 30.7673 21.3062 30.5171C21.6182 30.259 22.0262 30.0855 22.5304 29.9966C23.3183 29.8577 24.0401 30.035 24.6957 30.5287C25.35 31.0144 25.7543 31.6946 25.9085 32.5691C26.0627 33.4436 25.9161 34.2249 25.4688 34.913C25.0201 35.5933 24.4019 36.0029 23.614 36.1418C23.1098 36.2307 22.6637 36.2118 22.2759 36.0853C21.8945 35.9494 21.622 35.7863 21.4585 35.5958L21.3111 35.4512L21.2993 35.4533L21.8619 38.644L20.9165 38.8107ZM21.2351 31.7725C20.9292 32.2488 20.8325 32.8061 20.945 33.4443C21.0576 34.0824 21.339 34.573 21.7894 34.916C22.2477 35.2576 22.7644 35.3777 23.3395 35.2763C23.9147 35.1749 24.3552 34.886 24.6611 34.4096C24.9749 33.9319 25.0756 33.3739 24.9631 32.7358C24.8505 32.0976 24.5651 31.6077 24.1068 31.2661C23.6564 30.9231 23.1437 30.8023 22.5686 30.9037C21.9934 31.0051 21.549 31.2947 21.2351 31.7725ZM28.1201 34.4455C27.4343 33.9653 27.0136 33.284 26.858 32.4016C26.7025 31.5192 26.8648 30.7351 27.345 30.0493C27.8252 29.3635 28.5065 28.9428 29.3889 28.7872C30.2712 28.6317 31.0553 28.794 31.7412 29.2742C32.427 29.7544 32.8477 30.4357 33.0032 31.3181C33.1588 32.2005 32.9965 32.9846 32.5163 33.6704C32.0361 34.3562 31.3548 34.7769 30.4724 34.9324C29.59 35.088 28.8059 34.9257 28.1201 34.4455ZM28.129 30.5569C27.7995 31.0374 27.6909 31.5968 27.8035 32.2349C27.916 32.8731 28.2093 33.3616 28.6833 33.7004C29.1573 34.0392 29.7016 34.1545 30.3161 34.0461C30.9307 33.9378 31.4027 33.6433 31.7323 33.1628C32.0618 32.6823 32.1704 32.1229 32.0578 31.4848C31.9453 30.8466 31.652 30.3581 31.178 30.0193C30.7039 29.6805 30.1597 29.5652 29.5451 29.6736C28.9306 29.7819 28.4586 30.0764 28.129 30.5569ZM33.9056 32.3165L34.8511 32.1498C34.9331 32.3385 35.0549 32.4997 35.2166 32.6337C35.5707 32.9368 36.0628 33.0328 36.6931 32.9217C37.1658 32.8383 37.5122 32.6838 37.7324 32.4582C37.959 32.2233 38.0494 31.9758 38.0036 31.7158C37.9577 31.4558 37.8021 31.2639 37.5365 31.1402C37.271 31.0164 36.9019 30.9962 36.4292 31.0795L35.7201 31.2046L35.5638 30.3182L36.2729 30.1932C37.1395 30.0404 37.5242 29.6882 37.427 29.1368C37.3867 28.9083 37.2345 28.7361 36.9703 28.6202C36.7127 28.495 36.3633 28.4714 35.9221 28.5491C35.4179 28.6381 35.0425 28.8586 34.7959 29.2108C34.705 29.3405 34.6401 29.5022 34.6012 29.6959L33.6557 29.8627C33.6697 29.5271 33.7555 29.2074 33.9131 28.9034C34.2737 28.2305 34.8913 27.817 35.7658 27.6628C36.5064 27.5322 37.1014 27.5898 37.5509 27.8355C38.0083 28.0798 38.2786 28.4383 38.362 28.911C38.4745 29.5491 38.2233 30.0361 37.6082 30.372L37.5867 30.388L37.5888 30.3998C37.6124 30.3957 37.6618 30.3992 37.7368 30.4103C37.8119 30.4214 37.9108 30.4527 38.0336 30.5042C38.1629 30.5464 38.2878 30.6096 38.4083 30.694C38.5274 30.7705 38.6377 30.8891 38.7391 31.05C38.8485 31.2094 38.9219 31.3955 38.9594 31.6082C39.0483 32.1124 38.9099 32.5714 38.5442 32.9852C38.1785 33.399 37.6136 33.6733 36.8494 33.808C35.8646 33.9817 35.0788 33.7872 34.4922 33.2245C34.236 32.9691 34.0405 32.6664 33.9056 32.3165ZM38.9225 27.2281L39.927 27.0509L42.1125 31.8442L42.9989 31.688L43.6496 26.3946L44.6541 26.2174L43.6102 34.8092L42.6056 34.9864L42.9188 32.616L41.5598 32.8556L38.9225 27.2281ZM46.5218 31.9807L45.4799 26.0718L46.898 25.8218L49.3167 29.1727L49.6121 29.1206L50.7388 25.1445L52.1569 24.8945L53.1988 30.8033L52.2534 30.97L51.4199 26.2429L51.4109 26.1227L51.3872 26.1269L50.2724 30.1008L49.0315 30.3196L46.6247 26.9666L46.6011 26.9708L46.6337 27.0869L47.4672 31.814L46.5218 31.9807ZM53.5928 23.2887C53.4445 23.1849 53.3544 23.0424 53.3225 22.8612C53.2905 22.68 53.3265 22.5152 53.4303 22.367C53.5341 22.2187 53.6766 22.1286 53.8578 22.0966C54.039 22.0647 54.2038 22.1006 54.3521 22.2044C54.5004 22.3083 54.5905 22.4508 54.6224 22.632C54.6544 22.8132 54.6184 22.9779 54.5146 23.1262C54.4108 23.2745 54.2683 23.3646 54.0871 23.3966C53.9059 23.4285 53.7411 23.3926 53.5928 23.2887ZM54.8542 30.5114L53.8123 24.6026L54.7577 24.4359L55.7996 30.3447L54.8542 30.5114ZM57.4509 30.0536L56.409 24.1447L57.3544 23.978L57.7816 26.4006L61.0905 25.8172L60.6633 23.3946L61.6088 23.2279L62.6506 29.1367L61.7052 29.3034L61.2468 26.7035L57.9378 27.287L58.3963 29.8869L57.4509 30.0536ZM64.306 28.8448L63.2642 22.936L64.2096 22.7693L64.6367 25.1919L67.9457 24.6084L67.5185 22.1858L68.4639 22.0191L69.5058 27.928L68.5604 28.0947L68.102 25.4948L64.793 26.0782L65.2515 28.6781L64.306 28.8448ZM70.9249 27.6777L71.7316 25.3422C71.5193 25.2902 71.3001 25.1989 71.074 25.0682C70.6162 24.7752 70.3373 24.3451 70.2372 23.7779C70.1358 23.2028 70.2606 22.6893 70.6114 22.2375C70.9609 21.7778 71.4823 21.4869 72.1756 21.3646L74.8464 20.8937L75.8883 26.8026L74.9429 26.9693L74.6095 25.0784L72.7187 25.4118L72.0121 27.486L70.9249 27.6777ZM71.3816 22.7353C71.1892 22.9805 71.1229 23.2724 71.1826 23.6112C71.2424 23.95 71.4045 24.2016 71.6691 24.3662C71.9416 24.5294 72.2984 24.572 72.7396 24.4942L74.4532 24.1921L74.0573 21.9467L72.3437 22.2489C71.9025 22.3267 71.5818 22.4888 71.3816 22.7353ZM80.8554 25.9267L79.8135 20.0179L80.759 19.8512L81.1757 22.2147L82.3575 22.0063L83.8316 19.3094L84.9542 19.1114L83.2577 22.2741L86.1734 24.989L84.9916 25.1974L82.5138 22.8927L81.332 23.101L81.8008 25.76L80.8554 25.9267ZM86.3553 24.9569L86.9679 18.7564L89.4496 18.3188L92.1459 23.9359L91.1414 24.113L88.8968 19.3301L87.8332 19.5177L87.3598 24.7798L86.3553 24.9569ZM91.8272 16.547C91.6789 16.4432 91.5888 16.3006 91.5569 16.1194C91.5249 15.9382 91.5609 15.7735 91.6647 15.6252C91.7685 15.4769 91.911 15.3868 92.0922 15.3549C92.2734 15.3229 92.4382 15.3588 92.5865 15.4627C92.7347 15.5665 92.8249 15.709 92.8568 15.8902C92.8888 16.0714 92.8528 16.2362 92.749 16.3844C92.6452 16.5327 92.5027 16.6228 92.3215 16.6548C92.1402 16.6867 91.9755 16.6508 91.8272 16.547ZM93.0886 23.7697L92.0467 17.8608L92.9921 17.6941L94.034 23.603L93.0886 23.7697ZM96.0482 22.468C95.3782 21.985 94.9654 21.3023 94.8098 20.4199C94.6542 19.5375 94.8086 18.7548 95.2731 18.0718C95.7375 17.3888 96.3873 16.9736 97.2224 16.8264C98.1915 16.6555 99.0207 16.8667 99.7102 17.46C100.009 17.7242 100.246 18.0356 100.423 18.3944L99.4779 18.5611C99.3537 18.3636 99.189 18.1896 98.9837 18.0389C98.5361 17.7117 98.0011 17.6029 97.3787 17.7127C96.8508 17.8058 96.4414 18.0404 96.1503 18.4167C95.8657 18.7837 95.722 19.2355 95.7191 19.7722L98.1536 19.3429L98.3098 20.2292L95.8636 20.6606C96.0632 21.194 96.3602 21.5884 96.7546 21.8438C97.1568 22.0978 97.6218 22.1783 98.1497 22.0852C98.7957 21.9713 99.2736 21.6637 99.5832 21.1623C99.7246 20.9505 99.8203 20.7102 99.8704 20.4415L100.816 20.2748C100.784 20.6946 100.668 21.0929 100.466 21.4697C99.995 22.3001 99.275 22.8007 98.306 22.9716C97.4709 23.1188 96.7183 22.9509 96.0482 22.468ZM102.367 22.1336L101.325 16.2247L102.271 16.058L102.698 18.4807L106.007 17.8972L105.58 15.4746L106.525 15.3079L107.567 21.2167L106.622 21.3834L106.163 18.7835L102.854 19.367L103.313 21.9669L102.367 22.1336ZM107.569 16.0378L107.412 15.1514L112.494 14.2554L112.65 15.1417L110.582 15.5064L111.468 20.5289L110.522 20.6956L109.637 15.6731L107.569 16.0378ZM114.767 19.1674C114.111 18.6737 113.706 17.9897 113.552 17.1152C113.398 16.2407 113.545 15.4633 113.994 14.783C114.441 14.0949 115.059 13.6814 115.846 13.5425C116.343 13.4549 116.777 13.4759 117.149 13.6052C117.529 13.7332 117.817 13.8935 118.014 14.0864L118.151 14.2449L118.163 14.2428L117.994 13.2856L118.94 13.1189L119.982 19.0277L119.036 19.1944L118.87 18.249L118.858 18.2511L118.781 18.4353C118.676 18.673 118.468 18.9209 118.156 19.179C117.843 19.4292 117.434 19.5987 116.93 19.6877C116.142 19.8266 115.421 19.6532 114.767 19.1674ZM114.787 15.2767C114.481 15.753 114.385 16.3103 114.497 16.9485C114.61 17.5866 114.891 18.0772 115.342 18.4202C115.8 18.7618 116.317 18.8819 116.892 18.7805C117.467 18.6791 117.907 18.3902 118.213 17.9138C118.527 17.4361 118.628 16.8781 118.515 16.24C118.403 15.6018 118.117 15.1119 117.659 14.7703C117.209 14.4273 116.696 14.3065 116.121 14.4079C115.546 14.5094 115.101 14.7989 114.787 15.2767Z" fill="black"/>
<rect x="2.31666" y="24.5439" width="128" height="23" rx="4" transform="rotate(-10 2.31666 24.5439)" stroke="#1B1717" stroke-width="2"/>
<rect x="0.579228" y="23.3271" width="131" height="26" rx="5.5" transform="rotate(-10 0.579228 23.3271)" stroke="#EEEBDD"/>
</svg>
