<svg width="61" height="76" viewBox="0 0 61 76" fill="none" xmlns="http://www.w3.org/2000/svg">
<path d="M51.5734 45.5C52.6814 45.5 53.7786 45.7182 54.8023 46.1423C55.826 46.5663 56.7561 47.1878 57.5396 47.9713C58.3231 48.7548 58.9446 49.6849 59.3686 50.7086C59.7927 51.7323 60.0109 52.8295 60.0109 53.9375V57.3275C60.0114 59.3546 59.5737 61.3578 58.7277 63.1999C57.8818 65.042 56.6475 66.6794 55.1096 68C49.2409 73.04 40.8372 75.5 29.9996 75.5C19.1621 75.5 10.7696 73.04 4.91215 68C3.37638 66.6803 2.14372 65.0445 1.29846 63.2045C0.453206 61.3645 0.0152861 59.3636 0.0146484 57.3387V53.9338C0.0156427 51.6966 0.905029 49.5515 2.48726 47.97C4.06949 46.3884 6.21503 45.5 8.45215 45.5H51.5734ZM29.6246 0.5225L29.9996 0.5C30.6793 0.500029 31.3359 0.74616 31.8481 1.19288C32.3603 1.63959 32.6935 2.25667 32.7859 2.93L32.8122 3.3125L32.8084 6.12125H45.9334C48.1712 6.12125 50.3173 7.0102 51.8996 8.59254C53.482 10.1749 54.3709 12.321 54.3709 14.5588V31.4525C54.3709 33.6903 53.482 35.8364 51.8996 37.4187C50.3173 39.0011 48.1712 39.89 45.9334 39.89H14.0584C11.8206 39.89 9.67452 39.0011 8.09218 37.4187C6.50985 35.8364 5.6209 33.6903 5.6209 31.4525V14.5625C5.6209 13.4542 5.83926 12.3567 6.26352 11.3327C6.68778 10.3088 7.30962 9.3785 8.09351 8.59496C8.8774 7.81142 9.80799 7.18999 10.8321 6.76619C11.8562 6.34239 12.9538 6.12451 14.0621 6.125L27.1871 6.12125V3.3125C27.1873 2.6323 27.434 1.97519 27.8814 1.4629C28.3289 0.950614 28.9469 0.617851 29.6209 0.52625L29.9996 0.5L29.6171 0.52625L29.6246 0.5225ZM21.5584 17.375C20.9275 17.3498 20.2981 17.4522 19.7078 17.6762C19.1175 17.9002 18.5786 18.2411 18.1233 18.6786C17.6681 19.116 17.3058 19.6409 17.0584 20.2217C16.811 20.8025 16.6834 21.4274 16.6834 22.0588C16.6834 22.6901 16.811 23.3149 17.0584 23.8958C17.3058 24.4766 17.6681 25.0015 18.1233 25.4389C18.5786 25.8764 19.1175 26.2173 19.7078 26.4413C20.2981 26.6653 20.9275 26.7677 21.5584 26.7425C22.7682 26.6941 23.9123 26.1794 24.7511 25.3064C25.59 24.4333 26.0584 23.2695 26.0584 22.0588C26.0584 20.848 25.59 19.6842 24.7511 18.8111C23.9123 17.9381 22.7682 17.4234 21.5584 17.375ZM38.4071 17.375C37.7763 17.3498 37.1469 17.4522 36.5566 17.6762C35.9663 17.9002 35.4274 18.2411 34.9721 18.6786C34.5168 19.116 34.1546 19.6409 33.9072 20.2217C33.6597 20.8025 33.5322 21.4274 33.5322 22.0588C33.5322 22.6901 33.6597 23.3149 33.9072 23.8958C34.1546 24.4766 34.5168 25.0015 34.9721 25.4389C35.4274 25.8764 35.9663 26.2173 36.5566 26.4413C37.1469 26.6653 37.7763 26.7677 38.4071 26.7425C39.6169 26.6941 40.761 26.1794 41.5999 25.3064C42.4387 24.4333 42.9072 23.2695 42.9072 22.0588C42.9072 20.848 42.4387 19.6842 41.5999 18.8111C40.761 17.9381 39.6169 17.4234 38.4071 17.375Z" fill="#810000"/>
</svg>
