<svg width="81" height="81" viewBox="0 0 81 81" fill="none" xmlns="http://www.w3.org/2000/svg">
<g clip-path="url(#clip0_557_769)">
<path d="M40.957 3.37695C18.757 3.37695 0.957031 21.337 0.957031 43.767C0.957031 47.087 1.0837 48.347 1.77703 51.5336L13.9837 60.567L15.8837 75.617H36.2237L37.3104 76.3736C38.567 77.247 39.6604 77.6236 40.917 77.6236C42.0904 77.6236 43.357 77.287 44.3304 76.5803L45.6304 75.617H65.9437L67.8204 60.567L80.137 51.5336C80.8304 48.347 80.957 47.087 80.957 43.767C80.957 21.3403 63.1604 3.37695 40.957 3.37695ZM44.277 10.9036C47.277 10.9036 50.2037 11.6503 52.6504 13.067L44.4337 54.8936L55.8337 14.687C59.3637 15.887 62.0437 17.8236 64.1937 20.7336L64.277 20.847L47.937 56.2303L66.5104 23.8536L66.6204 23.9536C69.147 26.3136 70.777 29.177 71.5937 32.7803L50.9437 58.3336L72.397 36.667L72.4304 36.737C73.2737 38.6136 73.8204 41.2703 73.8204 43.3903C73.8204 45.087 73.7404 45.7636 73.2737 47.557L61.427 56.2303L59.8704 68.597H44.9537L43.2304 69.9136C42.567 70.4403 41.6237 70.8003 40.957 70.8003C40.2937 70.8003 39.347 70.4403 38.6837 69.9136L36.9604 68.6003H22.0304L20.547 56.567L8.45703 47.6803C8.09036 46.227 7.9237 44.9136 7.9237 43.477C7.9237 41.077 8.4537 38.5103 9.3437 36.6336L9.38703 36.5536L30.887 58.3903L10.1237 32.5703C10.957 29.027 13.037 25.6036 15.5904 23.527L34.0637 56.1136L17.5537 20.8336C19.4037 18.1203 22.387 15.9836 26.0404 14.7436L37.4537 54.9736L28.807 13.2203L28.9904 13.1203C31.7037 11.6203 34.317 10.9303 37.1804 10.9303C37.8304 10.9303 38.1337 10.9436 38.9404 11.0303L40.897 54.5303L42.4304 11.0003C43.177 10.917 43.4604 10.9036 44.277 10.9036Z" fill="#1B1717"/>
</g>
<defs>
<clipPath id="clip0_557_769">
<rect width="80" height="80" fill="white" transform="translate(0.957031 0.5)"/>
</clipPath>
</defs>
</svg>
