<svg width="29" height="29" viewBox="0 0 29 29" fill="none" xmlns="http://www.w3.org/2000/svg">
<path d="M26.5484 6.40324C18.5165 11.8011 16.7788 10.2379 21.3352 1.71367C16.7788 10.2379 14.5186 9.66667 14.5546 0C14.5186 9.66667 12.2535 10.2185 7.75947 1.6554C12.2528 10.2181 10.5019 11.7666 2.50681 6.30087C10.5023 11.767 9.66667 13.9573 0 12.8718C9.66631 13.9569 9.93673 16.2872 0.811264 19.8626C9.93529 16.2879 11.2513 18.2246 4.75942 25.6729C11.2531 18.2243 13.3123 19.3232 10.9369 28.9695C13.3123 19.3232 15.6426 19.3331 17.9279 28.9995C15.643 19.3331 17.711 18.2522 24.1319 25.7567C17.7103 18.253 19.0422 16.3277 28.1276 19.9808C19.0415 16.3273 19.3323 13.9992 29 12.9965C19.333 13.9988 18.5158 11.8011 26.5484 6.40324Z" fill="#810000"/>
</svg>
