<svg width="52" height="52" viewBox="0 0 52 52" fill="none" xmlns="http://www.w3.org/2000/svg">
<g id="mdi:graph">
<path id="Vector" d="M42.2497 36.8333C41.968 36.8333 41.6863 36.8333 41.4047 36.9199L37.9163 29.8783C38.6882 29.1257 39.218 28.1599 39.4378 27.1045C39.6577 26.0491 39.5576 24.9522 39.1504 23.954C38.7432 22.9558 38.0475 22.1018 37.1521 21.5014C36.2568 20.9009 35.2027 20.5812 34.1247 20.5833C33.843 20.5833 33.583 20.5833 33.2797 20.6699L29.748 13.6283C30.788 12.6533 31.4163 11.2883 31.4163 9.74992C31.4163 8.31333 30.8457 6.93558 29.8298 5.91976C28.814 4.90393 27.4363 4.33325 25.9997 4.33325C24.5631 4.33325 23.1853 4.90393 22.1695 5.91976C21.1537 6.93558 20.583 8.31333 20.583 9.74992C20.583 11.2883 21.2113 12.6533 22.2297 13.6283L18.7197 20.6699C18.4163 20.5833 18.1563 20.5833 17.8747 20.5833C16.7966 20.5812 15.7425 20.9009 14.8472 21.5014C13.9519 22.1018 13.2561 22.9558 12.8489 23.954C12.4418 24.9522 12.3417 26.0491 12.5615 27.1045C12.7814 28.1599 13.3111 29.1257 14.083 29.8783L10.5947 36.9199C10.313 36.8333 10.0313 36.8333 9.74967 36.8333C8.31309 36.8333 6.93533 37.4039 5.91951 38.4198C4.90369 39.4356 4.33301 40.8133 4.33301 42.2499C4.33301 43.6865 4.90369 45.0643 5.91951 46.0801C6.93533 47.0959 8.31309 47.6666 9.74967 47.6666C10.461 47.6666 11.1654 47.5265 11.8225 47.2543C12.4797 46.9821 13.0769 46.5831 13.5798 46.0801C14.0828 45.5771 14.4818 44.98 14.754 44.3228C15.0262 43.6656 15.1663 42.9612 15.1663 42.2499C15.1663 40.7333 14.538 39.3466 13.5197 38.3716L17.0297 31.3299C17.333 31.4166 17.593 31.4166 17.8747 31.4166C18.1563 31.4166 18.4163 31.4166 18.7197 31.3299L22.2513 38.3716C21.233 39.3466 20.583 40.7333 20.583 42.2499C20.583 43.6865 21.1537 45.0643 22.1695 46.0801C23.1853 47.0959 24.5631 47.6666 25.9997 47.6666C27.4363 47.6666 28.814 47.0959 29.8298 46.0801C30.8457 45.0643 31.4163 43.6865 31.4163 42.2499C31.4163 40.8133 30.8457 39.4356 29.8298 38.4198C28.814 37.4039 27.4363 36.8333 25.9997 36.8333C25.718 36.8333 25.4363 36.8333 25.1547 36.9199L21.6663 29.8783C22.663 28.9033 23.2913 27.5383 23.2913 25.9999C23.2913 24.4616 22.663 23.0966 21.6663 22.1216L25.1547 15.0799C25.4363 15.1666 25.718 15.1666 25.9997 15.1666C26.2813 15.1666 26.563 15.1666 26.8447 15.0799L30.333 22.1216C29.358 23.0966 28.708 24.4833 28.708 25.9999C28.708 27.4365 29.2787 28.8143 30.2945 29.8301C31.3103 30.8459 32.6881 31.4166 34.1247 31.4166C34.4063 31.4166 34.6663 31.4166 34.9697 31.3299L38.5013 38.3716C37.483 39.3466 36.833 40.7333 36.833 42.2499C36.833 43.6865 37.4037 45.0643 38.4195 46.0801C39.4353 47.0959 40.8131 47.6666 42.2497 47.6666C43.6863 47.6666 45.064 47.0959 46.0798 46.0801C47.0957 45.0643 47.6663 43.6865 47.6663 42.2499C47.6663 40.8133 47.0957 39.4356 46.0798 38.4198C45.064 37.4039 43.6863 36.8333 42.2497 36.8333Z" fill="#810000"/>
</g>
</svg>
