<svg width="88" height="79" viewBox="0 0 88 79" fill="none" xmlns="http://www.w3.org/2000/svg">
<path d="M7.9909 21.8796C7.48934 20.8291 7.32604 19.6489 7.52351 18.5017C7.72097 17.3546 8.26948 16.2969 9.0934 15.4746L14.3959 10.1721C15.2183 9.34959 16.2755 8.80227 17.4219 8.6055C18.5683 8.40873 19.7475 8.57218 20.7971 9.07334L26.3284 3.54209C27.7349 2.13606 29.6422 1.34619 31.6309 1.34619C33.6196 1.34619 35.5269 2.13606 36.9334 3.54209L47.5422 14.1508C48.9482 15.5573 49.738 17.4646 49.738 19.4533C49.738 21.4421 48.9482 23.3494 47.5422 24.7558L42.2359 30.0583L42.0484 29.8708L28.7921 43.1308L28.9796 43.3183L23.6771 48.6208C22.9807 49.3176 22.1537 49.8703 21.2436 50.2474C20.3335 50.6245 19.3579 50.8186 18.3728 50.8186C17.3876 50.8186 16.4121 50.6245 15.5019 50.2474C14.5918 49.8703 13.7649 49.3176 13.0684 48.6208L2.4634 38.0158C1.76664 37.3194 1.21392 36.4924 0.836819 35.5823C0.459719 34.6721 0.265625 33.6966 0.265625 32.7115C0.265625 31.7263 0.459719 30.7508 0.836819 29.8406C1.21392 28.9305 1.76664 28.1036 2.4634 27.4071L7.9909 21.8796ZM34.0909 48.4296L47.3509 35.1733L60.7984 48.6208L47.5422 61.8808L34.0947 48.4333L34.0909 48.4296ZM52.8409 67.1796L66.1009 53.9233L72.7309 60.5533C74.4766 62.3139 75.4538 64.6942 75.4487 67.1735C75.4437 69.6528 74.4567 72.0291 72.7038 73.7825C70.9509 75.5359 68.5749 76.5235 66.0956 76.5293C63.6163 76.5351 61.2357 75.5585 59.4746 73.8133L52.8447 67.1833L52.8409 67.1796ZM63.4534 8.84459L79.3609 24.7558L64.9646 39.1521C62.6659 41.4508 58.4246 40.9446 55.4959 38.0158L50.1934 32.7096C47.2647 29.7846 46.7547 25.5433 49.0571 23.2408L63.4534 8.84459ZM68.7522 3.54209L69.8884 2.40584C72.1871 0.10334 76.4284 0.61334 79.3572 3.54209L84.6597 8.84459C87.5884 11.7733 88.0984 16.0146 85.7959 18.3171L84.6597 19.4533L68.7522 3.54209ZM21.0259 61.8808L28.9759 53.9233C29.3241 53.5749 29.7374 53.2985 30.1924 53.1098C30.6474 52.9212 31.1351 52.824 31.6277 52.8238C32.1203 52.8237 32.608 52.9205 33.0632 53.1088C33.5183 53.2972 33.9319 53.5733 34.2803 53.9215C34.6287 54.2696 34.9051 54.683 35.0938 55.138C35.2824 55.593 35.3796 56.0807 35.3798 56.5733C35.38 57.0658 35.2831 57.5536 35.0948 58.0087C34.9064 58.4638 34.6303 58.8774 34.2822 59.2258L26.3284 67.1871C27.0314 67.8903 27.4263 68.844 27.4263 69.8383C27.4263 70.8327 27.0314 71.7864 26.3284 72.4896L21.0259 77.7921C20.6776 78.1408 20.264 78.4174 19.8088 78.6061C19.3536 78.7948 18.8656 78.8919 18.3728 78.8919C17.88 78.8919 17.392 78.7948 16.9367 78.6061C16.4815 78.4174 16.0679 78.1408 15.7196 77.7921L10.4171 72.4896C9.71413 71.7864 9.3192 70.8327 9.3192 69.8383C9.3192 68.844 9.71413 67.8903 10.4171 67.1871L15.7196 61.8846C16.0679 61.5359 16.4815 61.2593 16.9367 61.0706C17.392 60.8819 17.88 60.7848 18.3728 60.7848C18.8656 60.7848 19.3536 60.8819 19.8088 61.0706C20.264 61.2593 20.6776 61.5359 21.0259 61.8846V61.8808Z" fill="#810000"/>
</svg>
