<svg width="76" height="58" viewBox="0 0 76 58" fill="none" xmlns="http://www.w3.org/2000/svg">
<mask id="mask0_557_839" style="mask-type:luminance" maskUnits="userSpaceOnUse" x="0" y="0" width="76" height="58">
<path d="M13.7448 3.52625C24.138 3.00875 32.2211 2.75 37.9961 2.75C43.7711 2.75 51.858 3.00875 62.2567 3.52812C64.9779 3.66394 67.5572 4.78263 69.5159 6.67647C71.4746 8.57031 72.6794 11.1106 72.9067 13.8256C73.383 19.5144 73.6211 24.5244 73.6211 28.8575C73.6211 33.2431 73.3773 38.3225 72.8898 44.0975C72.6635 46.7813 71.4818 49.2949 69.5595 51.1815C67.6372 53.068 65.1018 54.2023 62.4142 54.3781C53.5248 54.9594 45.3855 55.25 37.9961 55.25C30.6086 55.25 22.4711 54.9594 13.5873 54.3781C10.9006 54.2024 8.36597 53.069 6.44378 51.1836C4.52159 49.2982 3.33933 46.786 3.11172 44.1031C2.61859 38.285 2.37109 33.2019 2.37109 28.8575C2.37109 24.5637 2.61297 19.5519 3.09297 13.82C3.32112 11.1056 4.52634 8.56626 6.48493 6.67319C8.44351 4.78012 11.0224 3.66195 13.743 3.52625H13.7448Z" fill="white" stroke="white" stroke-width="4" stroke-linejoin="round"/>
<path d="M32.375 20.7683V37.2608C32.3749 37.5513 32.4535 37.8363 32.6025 38.0856C32.7514 38.335 32.9652 38.5393 33.221 38.6768C33.4768 38.8143 33.7651 38.88 34.0553 38.8667C34.3454 38.8534 34.6265 38.7618 34.8688 38.6014L47.2381 30.4264C47.4592 30.2807 47.6408 30.0826 47.7668 29.8497C47.8929 29.6168 47.9594 29.3564 47.9605 29.0916C47.9616 28.8269 47.8973 28.5659 47.7732 28.332C47.6492 28.0981 47.4692 27.8984 47.2494 27.7508L34.8781 19.4333C34.6363 19.2708 34.355 19.1772 34.064 19.1623C33.7731 19.1474 33.4836 19.2118 33.2265 19.3488C32.9694 19.4857 32.7544 19.6899 32.6044 19.9396C32.4544 20.1894 32.3751 20.4751 32.375 20.7664V20.7683Z" fill="black" stroke="black" stroke-width="3.429" stroke-linejoin="round"/>
</mask>
<g mask="url(#mask0_557_839)">
<path d="M-7 -16H83V74H-7V-16Z" fill="#810000"/>
</g>
</svg>
